<?xml version="1.0" encoding="UTF-8"?>
<svg id="Layer_2" data-name="Layer 2" xmlns="http://www.w3.org/2000/svg" viewBox="0 0 85 85.17">
  <defs>
    <style>
      .cls-1 {
        letter-spacing: -.03em;
      }

      .cls-2, .cls-3 {
        fill: #fff;
      }

      .cls-4 {
        fill: #a45ea5;
      }

      .cls-3 {
        font-family: Tahoma, Tahoma;
        font-size: 8px;
      }

      .cls-5 {
        fill: none;
      }

      .cls-6 {
        letter-spacing: 0em;
      }
    </style>
  </defs>
  <g id="Layer_1-2" data-name="Layer 1">
    <g>
      <circle class="cls-4" cx="42.5" cy="42.67" r="42.5"/>
      <g>
        <circle class="cls-5" cx="42.5" cy="42.27" r="42.27"/>
        <g>
          <path class="cls-2" d="m45.58,66.38c6.79-8.21,5.98-18.72,1.27-25.46-1.92-2.75-4.33-4.96-7.28-6.56-2.94-1.6-6.09-2.44-9.45-2.54-3.35-.1-6.53.64-9.63,2.06v-8.45c-.29,0-.54,0-.79,0-3.13,0-6.26,0-9.4,0-1.19,0-1.45-.4-.95-1.49,1.05-2.28,2.12-4.55,3.16-6.84.25-.55.61-.76,1.21-.76,18.91.01,37.82.01,56.74,0,.61,0,.95.22,1.2.77,1.06,2.33,2.15,4.64,3.23,6.97.42.9.13,1.34-.88,1.34-3.39,0-6.78,0-10.3,0,0,.33,0,.62,0,.92,0,11.15,0,22.31,0,33.46,0,.76-.01,1.53-.16,2.26-.5,2.44-2.73,4.32-5.24,4.35-4.15.05-8.3.02-12.46.02-.06,0-.13-.03-.27-.06Zm13.15-43.21c-.18-.61-.37-1.12-.47-1.65-.1-.51-.35-.66-.87-.66-4.88.02-9.77.01-14.65,0-5.31,0-10.62,0-15.93,0-.25,0-.65.09-.71.25-.27.64-.43,1.32-.65,2.04h33.29Z"/>
          <path class="cls-2" d="m11.35,52.75c.04-10.08,8.25-18.23,18.31-18.17,10.13.07,18.15,8.28,18.09,18.53-.05,9.76-8.34,17.92-18.17,17.88-10.13-.04-18.27-8.19-18.24-18.24Zm11.35.03c0,3.76,3.05,6.86,6.79,6.87,3.85,0,6.92-3.04,6.93-6.88,0-3.71-3.06-6.82-6.76-6.83-3.86-.02-6.95,3.02-6.96,6.84Zm19.86-8.42c-1.23-1.85-2.7-3.36-4.57-4.56-.39.77-.77,1.51-1.14,2.24-.47.93-.92,1.86-1.39,2.79.62.62,1.19,1.22,1.79,1.79.11.11.4.17.53.1,1.58-.76,3.14-1.55,4.77-2.37Zm-21.42,21.39c.79-1.59,1.58-3.13,2.32-4.69.07-.15.01-.46-.1-.59-.47-.53-.98-1.03-1.5-1.51-.11-.11-.36-.21-.47-.16-1.61.78-3.21,1.6-4.81,2.4.97,1.67,2.97,3.67,4.56,4.55Z"/>
          <path class="cls-2" d="m24.9,52.84c-.02-2.57,2.05-4.67,4.62-4.7,2.54-.03,4.69,2.1,4.69,4.64,0,2.55-2.11,4.67-4.67,4.68-2.5,0-4.63-2.1-4.65-4.61Zm4.63-2.59c-1.38.02-2.53,1.19-2.52,2.56.01,1.37,1.2,2.53,2.56,2.52,1.38-.01,2.54-1.19,2.52-2.56-.02-1.38-1.2-2.54-2.56-2.52Z"/>
        </g>
      </g>
      <g>
        <rect class="cls-4" x="24.27" y="66.45" width="38.43" height="11.81"/>
        <g>
          <polygon class="cls-2" points="27.52 67.64 25.33 67.64 28.48 72.1 30.66 72.1 27.52 67.64"/>
          <polygon class="cls-2" points="33.8 67.64 31.62 67.64 34.76 72.1 36.95 72.1 33.8 67.64"/>
          <polygon class="cls-2" points="34.76 72.1 36.95 72.1 33.8 76.55 31.62 76.55 34.76 72.1"/>
          <polygon class="cls-2" points="31.49 72.1 33.68 72.1 30.53 76.55 28.35 76.55 31.49 72.1"/>
          <text class="cls-3" transform="translate(38.95 74.81)"><tspan class="cls-1" x="0" y="0">K</tspan><tspan x="4.48" y="0">est</tspan><tspan class="cls-6" x="14.94" y="0">r</tspan><tspan x="17.78" y="0">el</tspan></text>
        </g>
      </g>
    </g>
  </g>
</svg>