<?xml version="1.0" encoding="UTF-8"?>
<svg id="Layer_2" data-name="Layer 2" xmlns="http://www.w3.org/2000/svg" viewBox="0 0 85.3 85.3">
  <defs>
    <style>
      .cls-1 {
        fill: #58529e;
      }

      .cls-2 {
        fill: #fff;
      }
    </style>
  </defs>
  <g id="Layer_1-2" data-name="Layer 1">
    <g>
      <circle class="cls-1" cx="42.65" cy="42.65" r="42.65"/>
      <g>
        <path class="cls-2" d="m69.36,42.33c-.1.11-.16.21-.24.28-1.2,1.2-2.41,2.39-3.6,3.59-.88.88-1.75,1.77-2.64,2.65-.05.05-.2.05-.28.02-.09-.04-.16-.13-.23-.2-1.99-1.99-3.98-3.99-5.97-5.98-.37-.37-.37-.38,0-.74.23-.22.48-.4.71-.62.17-.16.3-.36.46-.53.32-.33.64-.65.97-.97,1.32-1.28,2.61-2.58,3.88-3.9.26-.27.26-.26.51,0,.63.64,1.3,1.24,1.89,1.91.34.37.72.69,1.07,1.04.23.24.48.47.7.72.1.11.15.25.24.37.1.13.18.31.31.36.35.14.53.4.7.7.06.1.17.18.27.25.29.18.63.31.73.7,0,.03.1.03.15.06.13.09.24.2.39.31Z"/>
        <path class="cls-2" d="m57.23,19.05c-2.19,2.19-4.39,4.39-6.62,6.61-.03-.03-.11-.08-.17-.14-2.08-2.09-4.16-4.18-6.25-6.27-.16-.16-.16-.25,0-.41,2.09-2.09,4.17-4.18,6.25-6.27.13-.13.2-.16.34-.02,2.14,2.14,4.28,4.28,6.41,6.42.01.01.02.03.03.07Z"/>
        <path class="cls-2" d="m64.26,31.14c-2.25-2.23-4.46-4.42-6.7-6.63.16-.15.28-.26.4-.38,1.71-1.69,3.43-3.38,5.13-5.08.33-.33.65-.67.96-1.02.15-.17.23-.17.4,0,1.11,1.13,2.24,2.25,3.37,3.37.83.83,1.66,1.67,2.5,2.51.19.19.37.37.55.55-2.21,2.23-4.41,4.46-6.6,6.67Z"/>
        <path class="cls-2" d="m49.04,42.12c-1.43,0-2.86,0-4.28,0-.35,0-.37-.03-.37-.37,0-2.82,0-5.64,0-8.46,0-.42.07-.5.5-.5,2.74,0,5.48,0,8.23,0,.55,0,.6.05.6.6,0,2.71,0,5.43,0,8.14,0,.07,0,.13,0,.2,0,.34-.05.38-.38.38-1.43,0-2.86,0-4.28,0Z"/>
        <path class="cls-2" d="m27.58,64.66c0-1.44,0-2.88,0-4.31,0-.27.08-.36.36-.36,2.75,0,5.5,0,8.25,0,.05,0,.1,0,.14,0,.48.04.52.08.52.57,0,2.76,0,5.52,0,8.28,0,.4,0,.4-.4.46-.08.01-.17.01-.26.01-2.74,0-5.48,0-8.22,0q-.39,0-.39-.4c0-1.42,0-2.84,0-4.26Z"/>
        <path class="cls-2" d="m38.48,64.64c0-1.42,0-2.84,0-4.26q0-.39.39-.39c2.8,0,5.6,0,8.4,0,.43,0,.43,0,.43.43,0,2.83,0,5.66,0,8.48,0,.4,0,.4-.4.4-2.83,0-5.66,0-8.48,0-.27,0-.34-.08-.34-.34,0-1.45,0-2.89,0-4.34h0Z"/>
        <path class="cls-2" d="m25.88,64.68c0,1.45,0,2.89,0,4.34,0,.22-.05.3-.29.3-2.85,0-5.69,0-8.54,0-.34,0-.39-.06-.39-.4,0-2.85,0-5.69,0-8.54,0-.27.11-.36.35-.37.08,0,.15,0,.23,0,2.75,0,5.5,0,8.25,0q.39,0,.39.4c0,1.43,0,2.86,0,4.28h0Z"/>
        <path class="cls-2" d="m25.89,42.9c0,1.46,0,2.91,0,4.37,0,.25-.11.28-.31.28-2.09,0-4.19,0-6.28,0-.77,0-1.54,0-2.31,0-.25,0-.33-.09-.33-.34,0-2.87,0-5.75,0-8.62,0-.26.1-.31.34-.31,2.87,0,5.73,0,8.6,0,.24,0,.3.07.3.31-.01,1.44,0,2.87,0,4.31,0,0,0,0,0,0Z"/>
        <path class="cls-2" d="m45.78,46.45c1.41,0,2.82,0,4.23,0,.35,0,.38.02.38.37,0,2.37,0,4.74,0,7.11,0,.5,0,1.01,0,1.51,0,.22-.09.28-.29.28-.76,0-1.52,0-2.28,0-1.99,0-3.98,0-5.97,0-.07,0-.13,0-.2,0-.43-.01-.52-.09-.52-.52.01-1.04.05-2.07.05-3.11,0-1.76,0-3.52,0-5.28,0-.27.08-.36.35-.36,1.42.01,2.84,0,4.25,0h0Z"/>
        <path class="cls-2" d="m27.57,53.8c0-1.42,0-2.84,0-4.25,0-.27.07-.36.35-.36,2.85,0,5.69,0,8.54,0,.37,0,.39.02.39.39,0,2.84,0,5.67,0,8.51,0,.24-.09.31-.32.31-2.88,0-5.77,0-8.65,0-.31,0-.32-.04-.32-.38,0-1.41,0-2.82,0-4.23,0,0,0,0,0,0Z"/>
        <path class="cls-2" d="m16.66,53.78c0-1.39,0-2.78,0-4.17,0-.39.03-.42.43-.42,2.83,0,5.66,0,8.48,0,.23,0,.31.08.31.32,0,2.71,0,5.43,0,8.14,0,.12,0,.25.01.37.03.38.03.38-.34.38-1.63,0-3.26,0-4.89,0-1.1,0-2.21,0-3.31,0q-.69,0-.7-.68c0-1.31,0-2.63,0-3.94h0Z"/>
        <path class="cls-2" d="m39.5,40.23c0,1.42,0,2.84,0,4.25,0,.24-.06.33-.32.33-2.86,0-5.73,0-8.59,0-.25,0-.27-.11-.27-.31.02-1.63.03-3.25.03-4.88,0-1.22-.02-2.43-.03-3.65,0-.37.05-.43.43-.43,2.75,0,5.5,0,8.25,0,.45,0,.48.04.48.49,0,1.4,0,2.8,0,4.2h.01Z"/>
        <path class="cls-2" d="m56.5,51.66c0,.22,0,.38,0,.54,0,2.88,0,5.77-.01,8.65,0,.16-.07.36-.18.48-.44.47-.9.92-1.37,1.38-.05.05-.16.1-.22.07-.06-.03-.09-.13-.11-.21-.02-.07,0-.15,0-.23,0-2.82,0-5.63,0-8.45,0-.26.07-.47.27-.65.45-.42.88-.87,1.32-1.3.08-.08.18-.16.31-.27Z"/>
        <path class="cls-2" d="m44.77,29.48c-.42.45-.83.83-1.18,1.27-.43.53-.96.64-1.61.64-2.66-.02-5.33-.01-7.99-.01-.11,0-.22,0-.4-.02.13-.15.21-.25.3-.34.45-.44.89-.89,1.35-1.31.13-.12.35-.21.53-.21,2.48-.01,4.97,0,7.45,0,.51,0,1.02,0,1.56,0Z"/>
        <path class="cls-2" d="m39.27,46.07c-.29.29-.54.55-.79.8-.28.28-.58.55-.86.84-.17.17-.36.25-.61.25-2.8,0-5.59,0-8.39,0-.21,0-.43-.07-.69-.12.3-.22.55-.38.77-.56.25-.21.47-.44.7-.66.05-.04.1-.11.1-.16.05-.33.25-.38.55-.38,2.96,0,5.92,0,8.87,0,.09,0,.18,0,.33.02Z"/>
        <path class="cls-2" d="m44.5,31.26c.31-.29.62-.58.92-.87.23-.22.43-.46.67-.66.15-.12.36-.24.54-.24,2.79-.01,5.58-.01,8.37,0,.09,0,.26.05.27.08,0,.15.03.36-.06.46-.4.43-.81.86-1.26,1.24-.13.11-.38.11-.57.11-2.86,0-5.71,0-8.57,0-.09,0-.18-.01-.27-.02-.01-.03-.03-.06-.04-.09Z"/>
        <path class="cls-2" d="m38.48,58.52c.43-.45.89-.89,1.31-1.38.33-.38.72-.48,1.21-.47,2.85.02,5.69.01,8.54.01.08,0,.16.01.31.02-.29.29-.53.54-.77.79-.2.2-.44.37-.61.6-.28.38-.64.45-1.09.45-2.76-.02-5.52-.01-8.28-.01-.22,0-.43,0-.62,0Z"/>
        <path class="cls-2" d="m29.25,35.69c0,.46,0,.88,0,1.29,0,2.64,0,5.27,0,7.91,0,.13-.03.3-.12.39-.54.56-1.11,1.1-1.69,1.66-.01-.07-.03-.14-.03-.21,0-2.91,0-5.83,0-8.74,0-.36.1-.67.39-.93.45-.4.86-.84,1.28-1.26.04-.04.09-.07.17-.12Z"/>
        <path class="cls-2" d="m30.83,34.09c.35-.35.65-.66.97-.97.22-.22.47-.42.68-.65.18-.19.37-.26.63-.26,2.81,0,5.61,0,8.42,0,.16,0,.31,0,.53,0-.09.11-.12.17-.17.22-.47.47-.95.93-1.41,1.41-.17.17-.35.23-.58.23-2.49,0-4.98-.01-7.48-.01-.45,0-.89.03-1.34.04-.06,0-.12,0-.24-.02Z"/>
        <path class="cls-2" d="m42.9,32.88c0,.11,0,.23,0,.34,0,2.97,0,5.94,0,8.91,0,.13-.02.31-.1.4-.55.57-1.13,1.12-1.73,1.71,0-.19,0-.35,0-.51,0-2.46,0-4.92.01-7.38,0-.47,0-.93-.02-1.4,0-.24.09-.35.31-.47.29-.17.54-.43.77-.69.22-.25.4-.54.59-.81.03-.05.06-.09.1-.14.03.02.05.03.08.05Z"/>
        <path class="cls-2" d="m51.02,57.14c0,.5,0,.93,0,1.36,0,2.59,0,5.18,0,7.76,0,.24-.06.42-.24.58-.51.49-1.01,1-1.54,1.51,0-.09-.01-.16-.01-.23,0-2.97,0-5.94,0-8.91,0-.17.09-.37.2-.49.42-.46.86-.89,1.3-1.32.07-.07.15-.14.28-.26Z"/>
        <path class="cls-2" d="m33.77,29.68c-.37.38-.77.73-1.11,1.14-.37.45-.81.57-1.38.57-2.5-.02-5-.01-7.5-.01-.15,0-.3,0-.52,0,.12-.15.19-.25.27-.33.45-.46.9-.93,1.38-1.37.11-.11.3-.18.45-.18,2.34-.01,4.68,0,7.02,0,.35,0,.7.02,1.05.04.11,0,.21.04.31.07,0,.03.01.06.02.09Z"/>
        <path class="cls-2" d="m41.73,44.9c.07-.1.1-.16.15-.2.47-.46.94-.91,1.41-1.37.18-.18.38-.25.64-.25,2.74,0,5.48,0,8.22,0,.11,0,.22,0,.39,0-.3.31-.55.57-.8.82-.28.28-.57.57-.87.83-.11.1-.27.19-.41.19-2.83.01-5.65,0-8.48,0-.06,0-.13-.01-.25-.02Z"/>
        <path class="cls-2" d="m51.93,65.67c0-2.88.01-5.7,0-8.53,0-.59.05-1.09.56-1.49.36-.28.66-.66.98-.99.06-.06.12-.1.22-.19.01.11.03.18.03.24,0,2.94,0,5.88,0,8.82,0,.28-.08.48-.29.67-.49.46-.96.94-1.5,1.46Z"/>
        <path class="cls-2" d="m20.52,34.07c.59-.6,1.17-1.19,1.75-1.76.08-.07.22-.11.34-.11,2.74,0,5.48,0,8.22.01.09,0,.18.02.33.03-.08.1-.11.17-.16.22-.49.49-.98.99-1.48,1.47-.1.09-.26.17-.4.17-1.02,0-2.03-.03-3.05-.04-1.52,0-3.05,0-4.57,0-.32,0-.64,0-.98,0Z"/>
        <path class="cls-2" d="m54.64,41.23c-.01-.13-.02-.22-.02-.31,0-2.66,0-5.33,0-7.99,0-.23.08-.38.26-.53.32-.28.6-.6.91-.91.16-.16.33-.31.5-.46.12-.11.21-.08.22.09,0,.09,0,.19,0,.29,0,2.56,0,5.12,0,7.68,0,.14-.08.31-.18.42-.51.55-1.04,1.09-1.56,1.63-.02.03-.06.04-.13.1Z"/>
        <path class="cls-2" d="m51.95,54.69c0-1.6,0-3.17,0-4.74,0-1.3-.01-2.61-.03-3.91,0-.43.1-.78.44-1.09.45-.41.85-.86,1.33-1.34,0,.17.02.27.02.37,0,2.91,0,5.82,0,8.73,0,.14-.06.31-.15.4-.48.51-.98,1.01-1.48,1.51-.02.02-.06.03-.12.06Z"/>
        <path class="cls-2" d="m28.29,35.17c-.28.29-.6.56-.84.87-.45.58-1.01.73-1.73.72-2.26-.04-4.51-.01-6.77-.02-.3,0-.6-.03-.97-.05.13-.16.21-.29.32-.39.36-.37.71-.75,1.09-1.09.12-.11.31-.19.47-.19,2.66,0,5.31,0,7.97,0,.15,0,.29.03.44.05.01.03.02.06.03.09Z"/>
        <path class="cls-2" d="m54.75,51.87c-.05-.16-.13-.31-.13-.47,0-2.82,0-5.63,0-8.45,0-.26.12-.45.32-.6.33.64.84,1.1,1.34,1.56.17.16.25.34.25.58-.01,1.83,0,3.65-.01,5.48,0,.11-.03.24-.1.31-.5.52-1.01,1.03-1.52,1.55-.02.02-.05.02-.14.05Z"/>
        <path class="cls-2" d="m38.36,57.21c0-.34,0-.68,0-1.02,0-2.28,0-4.55-.01-6.83,0-.37.03-.66.46-.8.18-.06.31-.3.44-.47.29-.36.57-.72.93-1.06,0,.3,0,.6,0,.9,0,2.49,0,4.97,0,7.46,0,.22.02.44-.31.46-.09,0-.19.12-.27.2-.38.4-.76.8-1.14,1.2-.04-.02-.07-.04-.11-.06Z"/>
      </g>
    </g>
  </g>
</svg>