<?xml version="1.0" encoding="UTF-8"?>
<svg id="Layer_2" data-name="Layer 2" xmlns="http://www.w3.org/2000/svg" xmlns:xlink="http://www.w3.org/1999/xlink" viewBox="0 0 85 85">
  <defs>
    <style>
      .cls-1 {
        fill: #58529e;
      }

      .cls-2 {
        fill: #fff;
      }

      .cls-3 {
        clip-path: url(#clippath);
      }

      .cls-4 {
        clip-rule: evenodd;
        fill: none;
      }
    </style>
    <clipPath id="clippath">
      <polygon class="cls-4" points="4.45 6.39 74.67 6.39 74.67 76.61 4.45 76.61 4.45 6.39 4.45 6.39"/>
    </clipPath>
  </defs>
  <g id="Layer_1-2" data-name="Layer 1">
    <g>
      <circle class="cls-1" cx="42.5" cy="42.5" r="42.5"/>
      <g class="cls-3">
        <path class="cls-2" d="m43.61,47.14c2.05,2.07,4.1,4.14,6.13,6.19.53-.53,1-1,1.53-1.53-2.06-2.03-4.13-4.08-6.15-6.08.86-1.22,1.73-2.31,2.43-3.5.64-1.09,1.11-2.29,1.62-3.46.15-.34.27-.52.67-.5.59.04,1.17,0,1.82,0-.76,2.66-1.97,5.01-3.53,7.15,1.63,1.61,3.23,3.19,4.88,4.82.7-.52,1.58-1,2.6-.75.62.15,1.3.4,1.74.83,4.71,4.65,9.39,9.33,14.05,14.02,1.39,1.4,1.32,3.28-.08,4.68-1.47,1.46-2.94,2.93-4.41,4.4-1.48,1.48-3.33,1.5-4.83.02-3.49-3.48-6.97-6.97-10.46-10.45-1.03-1.03-2.07-2.06-3.1-3.1-1.6-1.6-1.69-3.15-.31-4.88-1.6-1.58-3.21-3.16-4.85-4.77-7.03,4.79-14.66,5.96-22.71,2.61-6.18-2.57-10.44-7.16-12.7-13.48-4.52-12.67,2.83-26.6,15.83-29.93,13.42-3.44,25.41,5.21,28.15,16.73h-2.24c-2.13-6.81-6.43-11.66-13.21-14.08-5.61-2-11.13-1.56-16.42,1.15-10.62,5.43-14.39,18.81-8.3,29.11,6.27,10.61,21.44,14.03,31.85,4.78Zm26.66,19.32c-.25-.33-.44-.66-.7-.93-2.83-2.85-5.67-5.68-8.51-8.52-1.68-1.68-3.35-3.36-5.03-5.03-.62-.62-1.1-.61-1.7,0-1.49,1.48-2.97,2.96-4.45,4.45-.55.55-.55,1.04-.01,1.6.33.35.67.68,1.01,1.02,4.21,4.21,8.42,8.42,12.63,12.63.68.68,1.17.74,1.76.16,1.53-1.5,3.04-3.02,4.55-4.55.19-.2.28-.5.46-.83Z"/>
        <path class="cls-2" d="m47,38.28c-2.41,7.03-10.08,12.84-19.16,11.98-9.58-.92-17.38-9.21-16.8-19.65.51-9.14,7.64-16.78,17.22-17.48,10.23-.74,17.32,6.55,19.07,13.1-.67,0-1.33.04-1.97-.02-.18-.02-.4-.31-.48-.52-1.67-4.13-4.52-7.13-8.57-8.96-9.76-4.4-21.16,1.74-22.84,12.27-1.42,8.9,4.33,17.17,13.1,18.85,7.23,1.38,14.5-2.25,17.74-8.89.26-.54.55-.74,1.13-.68.51.05,1.03.01,1.57.01Z"/>
        <path class="cls-2" d="m51.53,36.05h-2.15v-5.41h-2.18v5.39h-2.2v-5.38h-2.2v5.39h-2.15v-8.69h2.1c.02.31.04.64.07,1.06.62,0,1.23-.02,1.84,0,.4.02.8.12,1.2.18.11.02.22.06.32.05,1.1-.07,2.21-.2,3.31-.22.99-.02,1.99.82,2.03,1.79.07,1.93.02,3.86.02,5.83Z"/>
        <path class="cls-2" d="m27.42,22.98v13.05c-1.69,0-3.38.13-5.04-.04-1.56-.16-2.57-1.55-2.59-3.13,0-.8-.01-1.6,0-2.39.03-1.74,1.4-3.11,3.14-3.14.75-.01,1.5,0,2.32,0v-4.35h2.17Zm-2.21,10.91v-4.38c-.73,0-1.41-.02-2.09,0-.72.03-1.11.39-1.14,1.1-.03.73-.03,1.46,0,2.18.03.68.4,1.05,1.08,1.09.7.03,1.41,0,2.15,0Z"/>
        <path class="cls-2" d="m59.21,36.08c-1.61,0-3.14.04-4.66-.01-.99-.03-1.87-1-1.9-2-.03-.84-.03-1.69,0-2.53.04-1.06.97-1.96,2.05-2.01.39-.02.77,0,1.16,0,.36,0,.73,0,1.09,0-.07-.8-.37-1.08-1.18-1.1-1.02-.02-2.04,0-3.1,0v-2.08c1.37,0,2.77-.16,4.11.04,1.49.22,2.4,1.54,2.41,3.05.01,2.19,0,4.37,0,6.64Zm-4.35-2.21h2.13v-2.12h-2.13v2.12Z"/>
        <path class="cls-2" d="m34.01,27.33c2.44,0,4.39,1.93,4.39,4.36,0,2.44-1.93,4.39-4.36,4.39-2.44,0-4.39-1.93-4.39-4.36,0-2.44,1.93-4.39,4.36-4.39Zm0,6.57c1.15.01,2.19-1.01,2.21-2.17.01-1.15-1.01-2.19-2.17-2.21-1.15-.01-2.19,1.02-2.21,2.17-.01,1.16,1.01,2.19,2.17,2.2Z"/>
        <path class="cls-2" d="m65.81,36.04v-8.66h2.14c.02.32.05.65.07,1.04.72,0,1.42,0,2.13,0,1.28.01,2.21.93,2.21,2.19.01,1.8,0,3.59,0,5.43h-2.19c0-.89,0-1.79,0-2.7s0-1.77,0-2.7h-2.18v5.38h-2.19Z"/>
        <path class="cls-2" d="m63.57,28.46v7.57h-2.11v-7.57h2.11Z"/>
        <path class="cls-2" d="m61.47,24.06h2.08v2.13h-2.08v-2.13Z"/>
        <path class="cls-2" d="m17.56,33.96v2.09h-2.12v-2.09h2.12Z"/>
      </g>
    </g>
  </g>
</svg>