<?xml version="1.0" encoding="UTF-8"?>
<svg id="Layer_2" data-name="Layer 2" xmlns="http://www.w3.org/2000/svg" viewBox="0 0 85 85">
  <defs>
    <style>
      .cls-1 {
        fill: #f39320;
      }

      .cls-2 {
        fill: #fff;
        fill-rule: evenodd;
      }
    </style>
  </defs>
  <g id="Layer_1-2" data-name="Layer 1">
    <g id="f5a0c3fc-64ab-4d15-934e-447006f4eeaa">
      <g id="e3c5f3d2-98c6-407f-a3b2-6284d1be0d56">
        <circle class="cls-1" cx="42.5" cy="42.5" r="42.5"/>
        <path class="cls-2" d="m65.8,56.54c4.42-7.57,4.84-16.84,1.12-24.78l4.08-13-10.4,2.29-1.84.41c-.87-.68-1.79-1.3-2.76-1.84-9.39-5.42-21.12-4.7-29.77,1.84l-1.84-.41-10.39-2.34,4.08,13.05c-6.17,13.53-.21,29.49,13.32,35.67,12.56,5.73,27.43,1.03,34.4-10.89Zm-19.88.91h-6.92c-1.35.09-2.52-.94-2.6-2.29-.09-1.35.94-2.52,2.29-2.6.1,0,.21,0,.31,0h6.94c1.35.09,2.37,1.25,2.29,2.6-.08,1.23-1.06,2.21-2.29,2.29h-.02Zm.91-13.35c-.93-1.6-.39-3.65,1.21-4.58,0,0,.01,0,.02-.01l6-3.47c1.57-.98,3.65-.5,4.63,1.07.98,1.57.5,3.65-1.07,4.63-.06.04-.12.07-.18.11l-6,3.47c-1.59.94-3.64.41-4.57-1.18,0-.01-.02-.03-.03-.04Zm-13.35,1.22l-6-3.47c-1.62-.92-2.18-2.98-1.25-4.6.92-1.62,2.98-2.18,4.59-1.25h0l6,3.47c1.56,1.01,2,3.09,1,4.65-.94,1.45-2.82,1.95-4.36,1.16l.02.04Z"/>
      </g>
    </g>
  </g>
</svg>