<?xml version="1.0" encoding="UTF-8"?>
<svg id="Layer_2" data-name="Layer 2" xmlns="http://www.w3.org/2000/svg" viewBox="0 0 85 85">
  <defs>
    <style>
      .cls-1 {
        fill: #fff;
      }

      .cls-2 {
        fill: #76927a;
      }
    </style>
  </defs>
  <g id="Layer_1-2" data-name="Layer 1">
    <circle class="cls-2" cx="42.5" cy="42.5" r="42.5"/>
    <g>
      <path class="cls-1" d="m64.87,59.91c.16.7.32,1.24.41,1.8.07.44.11.9.09,1.35-.05.99-.8,1.58-1.74,1.31-.75-.22-1.45-.6-2.17-.92-.2-.09-.39-.22-.65-.38-.08.27-.13.5-.22.71-.24.59-.44,1.21-.77,1.75-.72,1.16-1.9,1.55-3.14.98-.73-.33-1.41-.8-2.03-1.31-1.7-1.38-2.85-3.22-3.87-5.11-1.04-1.94-1.95-3.95-2.93-5.92-.08-.17-.3-.37-.46-.38-2.74-.13-5.43-.51-8.07-1.26-.07-.02-.15-.02-.32-.04,0,.39,0,.76,0,1.13,0,1.09,0,2.19,0,3.28,0,.33.08.52.43.6.46.1.9.26,1.35.39.39.11.67.33.57.76-.1.44-.47.52-.85.44-.47-.09-.94-.23-1.42-.36-.2.49.09,1.29-.73,1.29-.86,0-.5-.86-.74-1.35-1.03.24-2.05.47-3.07.71-.4.1-.77.15-.91-.35-.13-.44.08-.72.65-.86.97-.24,1.93-.48,2.91-.69.39-.09.55-.24.54-.68-.03-1.43-.02-2.87,0-4.3,0-.28-.02-.5-.34-.62-1.92-.7-3.71-1.66-5.37-2.86-.07-.05-.16-.07-.34-.14,0,.27,0,.47,0,.67,0,1.26.01,2.53,0,3.79,0,.37.12.55.48.63.47.12.94.27,1.41.4.43.12.58.42.47.82-.11.42-.45.48-.81.39-.47-.11-.94-.26-1.42-.4-.27.47.12,1.35-.78,1.3-.81-.04-.43-.88-.73-1.34-1.01.23-2.04.45-3.05.71-.46.12-.82.08-.93-.41-.12-.49.21-.71.65-.81.95-.23,1.9-.48,2.85-.68.49-.1.67-.31.66-.83-.04-1.64,0-3.28-.03-4.92,0-.26-.14-.59-.33-.78-3.44-3.28-5.33-7.35-6.08-11.98-.24-1.47-.35-2.96-.42-4.44-.08-1.48-.9-2.52-1.86-3.5-.1-.11-.42-.08-.61-.01-1.28.46-2.3,1.28-3.18,2.29-.53.6-.99,1.28-1.49,1.91-.31.38-.62.77-.98,1.1-.78.72-1.65.53-1.9-.49-.2-.84-.26-1.77-.14-2.62.35-2.46,1.57-4.48,3.37-6.18.22-.21.38-.55.42-.85.09-.59.04-1.21.14-1.8.34-2.08,1.66-3.26,3.62-3.81,3.52-.99,7.84.51,9.8,3.53,1.13,1.73,2.64,2.89,4.56,3.52,2.09.69,4.22,1.27,6.31,1.94,2.95.95,5.63,2.4,7.68,4.78,2,2.32,3.45,4.98,4.39,7.9.43,1.34.8,2.7,1.14,4.07.25,1.01.68,1.92,1.36,2.7,3.66,4.19,8.02,7.45,13.09,9.77.12.05.24.13.37.14.95.1,1.31.71,1.33,1.57.03.73.1,1.48,0,2.2-.25,1.78-1.45,2.52-3.23,2.02-.75-.21-1.46-.59-2.19-.9-.2-.09-.39-.2-.72-.36ZM18.55,22.12c-.08,1.21-.05,1.18.91,1.92,1.18.9,2.37,1.81,3.45,2.82,1.09,1.03,1.84,2.29,1.94,3.85.07,1.15.11,2.3.24,3.44.35,3.01,1.17,5.87,2.74,8.48,2.65,4.43,6.63,7.12,11.49,8.61,2.73.84,5.54,1.27,8.4,1.26.47,0,.89.05,1.08.6,1.12,3.33,2.88,6.34,4.83,9.24.77,1.15,1.76,2.12,2.97,2.83,1.19.7,2.03.43,2.49-.86.28-.77.4-1.6.57-2.41.12-.56.5-.75.99-.46.26.15.49.36.75.51.65.38,1.29.79,1.97,1.1.71.32.92.12.83-.66-.03-.28-.09-.56-.18-.82-.31-.87-.67-1.72-.95-2.6-.08-.26-.04-.66.12-.85.12-.14.56-.11.79-.01.64.28,1.22.67,1.86.96.73.34,1.47.69,2.24.93,1.04.33,1.57.01,1.73-1.05.09-.58-.02-1.2-.01-1.8,0-.42-.23-.57-.59-.69-.57-.2-1.15-.4-1.66-.71-1.98-1.2-3.93-2.45-5.9-3.67-.28-.17-.58-.39-.89-.44-1.9-.26-3.81-.43-5.71-.71-4.32-.63-8.52-1.73-12.46-3.65-4.65-2.26-8.43-5.46-10.92-10.07-1.02-1.88-1.84-3.84-2.11-5.98-.32-2.58-.11-5.13.61-7.61.28-.97.09-1.63-.46-2.4-1.77-2.48-5.48-3.84-8.4-2.97-1.31.39-2.29,1.16-2.61,2.55-.1.42-.09.86-.14,1.29Zm36,23.45c-.38-1.16-.82-2.26-1.11-3.39-.54-2.1-1.19-4.16-2.17-6.1-1.77-3.53-4.18-6.47-7.93-8.02-1.79-.74-3.65-1.29-5.51-1.83-2.17-.64-4.36-1.23-6.19-2.65-.03-.02-.1,0-.21,0-.18.88-.39,1.76-.52,2.65-.35,2.31-.38,4.62.37,6.88,2.02,6.12,6.14,10.35,11.86,13.14,4.63,2.25,9.6,3.25,14.67,3.86.41.05.82.07,1.36.12-.16-.2-.21-.27-.28-.33-.89-.85-1.77-1.69-2.67-2.53-.14-.13-.35-.21-.54-.27-2.07-.61-4.17-1.14-6.22-1.82-1.3-.43-2.53-1.07-3.78-1.64-.39-.18-.6-.48-.37-.91.22-.4.56-.39.92-.22.07.03.13.07.2.1,1.96.78,3.9,1.58,5.87,2.33.74.28,1.54.43,2.26.63ZM14.72,31.59c.82-1,1.62-2.02,2.47-2.98.86-.98,1.93-1.7,3.24-2.26-.93-.69-1.79-1.32-2.62-1.94-2.01,1.46-3.78,5.61-3.08,7.18Z"/>
      <path class="cls-1" d="m22.98,24.16c-1.36-.01-2.29-.99-2.28-2.4.01-1.41.99-2.36,2.4-2.34,1.33.02,2.25.99,2.25,2.37,0,1.43-.95,2.37-2.37,2.36Zm0-1.3c.63.02,1.09-.39,1.12-1.02.03-.62-.4-1.09-1.02-1.11-.64-.02-1.09.39-1.12,1.01-.03.61.41,1.09,1.03,1.11Z"/>
    </g>
  </g>
</svg>