<?xml version="1.0" encoding="UTF-8"?>
<svg id="Layer_2" data-name="Layer 2" xmlns="http://www.w3.org/2000/svg" viewBox="0 0 85.3 85.3">
  <defs>
    <style>
      .cls-1, .cls-2 {
        fill: #58529e;
      }

      .cls-3 {
        fill: #fff;
      }

      .cls-2 {
        font-family: CopperplateGothic-Bold, 'Copperplate Gothic Bold';
        font-size: 11px;
        font-weight: 700;
      }
    </style>
  </defs>
  <g id="Layer_1-2" data-name="Layer 1">
    <g>
      <circle class="cls-1" cx="42.65" cy="42.65" r="42.65"/>
      <g>
        <circle class="cls-3" cx="29.32" cy="19.04" r="4.68"/>
        <circle class="cls-3" cx="25.86" cy="34.08" r="4.68"/>
        <circle class="cls-3" cx="36.62" cy="42.79" r="4.68"/>
        <circle class="cls-3" cx="52.14" cy="38.76" r="4.68"/>
        <circle class="cls-3" cx="56.82" cy="24.73" r="4.68"/>
        <circle class="cls-3" cx="47.47" cy="14.23" r="4.68"/>
        <circle class="cls-3" cx="41.3" cy="28.51" r="4.68"/>
        <rect class="cls-3" x="40.31" y="15.92" width="2" height="25.34" transform="translate(-7.65 39.86) rotate(-47.65)"/>
        <path class="cls-3" d="m36.37,43.85l-11.63-8.44,3.73-17.17,19.33-5.12,10.11,11.34h0s.69.79.69.79l-.95.29-3.73,15.36-17.55,2.97Zm-9.11-9.09l9.61,6.97,15.42-2.61,3.14-12.93-28.17,8.56Zm2.91-14.91l-2.78,12.78,27.6-8.39-6.33-6.81.17-.16-1.71-1.92-16.96,4.49Z"/>
        <rect class="cls-3" x="29.13" y="27.98" width="25.72" height="2" transform="translate(1.44 59.94) rotate(-71.97)"/>
      </g>
      <polygon class="cls-3" points="71.93 66.16 11.76 66.16 5.06 53.14 80.24 53.4 71.93 66.16"/>
      <text class="cls-2" transform="translate(27.68 63.29)"><tspan x="0" y="0">IPv4</tspan></text>
    </g>
  </g>
</svg>