<?xml version="1.0" encoding="UTF-8"?>
<svg id="Layer_2" data-name="Layer 2" xmlns="http://www.w3.org/2000/svg" viewBox="0 0 85 85">
  <defs>
    <style>
      .cls-1 {
        fill: #58529e;
      }

      .cls-2 {
        fill: #fff;
      }
    </style>
  </defs>
  <g id="Layer_1-2" data-name="Layer 1">
    <g>
      <circle class="cls-1" cx="42.5" cy="42.5" r="42.5"/>
      <g>
        <path class="cls-2" d="m40.47,23.5c0-1.58.04-2.99-.03-4.39-.02-.31-.39-.73-.69-.88-4.95-2.43-5.74-9.58-1.4-13.09,2.26-1.83,4.78-2.08,7.31-.75,2.66,1.39,4.01,3.8,3.97,6.97-.04,3.09-1.44,5.4-4.03,6.72-.74.38-.97.78-.93,1.6.06,1.24.02,2.48.02,3.85.35.02.69.06,1.02.06,4.25.03,8.5-.03,12.74.11,5.92.19,10.02,3.51,11.98,9.57.19.6.49.75,1,.87,5.86,1.42,9.59,6.57,9.47,13.06-.1,5.46-3.77,10.4-8.87,11.81-.69.19-.87.49-.95,1.22-.8,7.47-5.56,12.35-12.52,12.69-3.82.19-7.66.1-11.49.1-6.71,0-13.41.11-20.12-.09-7.34-.22-12.16-5.29-12.9-13.19-.02-.17-.04-.34-.05-.43-1.25-.55-2.5-.98-3.65-1.62-4.13-2.33-6.68-7.79-5.99-12.63.82-5.71,4.42-9.98,9.3-10.98.53-.11.9-.26,1.1-.92,1.69-5.73,5.54-8.76,10.89-9.38,3.57-.42,7.2-.2,10.81-.26,1.3-.02,2.61,0,4.04,0Zm2,44.6s0,.03,0,.04c5.14,0,10.28.06,15.42-.02,5.41-.08,8.84-3.66,8.94-9.46.11-6.89.1-13.78.01-20.67-.06-4.82-2.34-8.07-6.32-9.18-1.28-.36-2.65-.47-3.98-.47-9.16-.04-18.32-.03-27.49-.01-.96,0-1.91.06-2.87.15-4.36.44-7.3,3.53-7.74,8.22-.16,1.74-.17,3.5-.16,5.26.03,5.92-.02,11.85.19,17.76.17,4.75,3.67,8.28,8.09,8.36,5.3.1,10.6.02,15.89.02Zm-28.57-29.04c-2.7.33-5.34,3.85-5.47,7.21-.15,3.97,2.21,7.58,5.47,8.3v-15.5Zm57.26-.22v15.54c2.79-.42,5.4-3.9,5.52-7.3.14-3.85-2.22-7.44-5.52-8.24Zm-28.59-24.43c1.58,0,2.85-1.36,2.86-3.06,0-1.64-1.26-3.07-2.75-3.09-1.61-.02-2.99,1.4-2.98,3.08.01,1.68,1.31,3.08,2.86,3.08Z"/>
        <path class="cls-2" d="m54.65,33.71c4.87-.03,8.67,3.98,8.69,9.18.01,5.19-3.73,9.37-8.42,9.41-4.8.04-8.75-4.09-8.77-9.17-.03-5.21,3.75-9.38,8.51-9.41Zm.08,13.87c2.36.04,4.26-1.94,4.31-4.5.05-2.46-1.83-4.64-4.05-4.7-2.46-.06-4.46,1.93-4.54,4.53-.08,2.5,1.88,4.64,4.28,4.68Z"/>
        <path class="cls-2" d="m38.99,43.07c-.06,5.24-3.94,9.29-8.81,9.22-4.68-.07-8.44-4.33-8.38-9.49.06-5.11,4.03-9.22,8.82-9.12,4.67.1,8.43,4.32,8.37,9.39Zm-8.63,4.51c2.3.08,4.24-1.93,4.34-4.49.1-2.43-1.87-4.67-4.15-4.72-2.38-.05-4.38,1.98-4.46,4.52-.07,2.52,1.83,4.62,4.26,4.7Z"/>
        <path class="cls-2" d="m42.56,63.19c-3.74,0-7.47,0-11.21,0-.51,0-1.02-.05-1.52-.16-1-.23-1.51-1.03-1.65-2.04-.13-1.01.27-1.86,1.12-2.31.47-.25,1.04-.38,1.56-.38,7.76-.02,15.52-.01,23.28,0,.38,0,.77.03,1.14.12,1.03.25,1.69,1.18,1.69,2.32,0,1.12-.68,2.09-1.69,2.32-.49.11-1.01.13-1.52.13-3.74.01-7.47,0-11.21,0Z"/>
      </g>
    </g>
  </g>
</svg>