<?xml version="1.0" encoding="UTF-8"?>
<svg id="Layer_2" data-name="Layer 2" xmlns="http://www.w3.org/2000/svg" viewBox="0 0 85 85">
  <defs>
    <style>
      .cls-1 {
        fill: #58529e;
      }

      .cls-2 {
        fill: #fff;
      }
    </style>
  </defs>
  <g id="Layer_1-2" data-name="Layer 1">
    <g>
      <circle class="cls-1" cx="42.5" cy="42.5" r="42.5"/>
      <g>
        <path class="cls-2" d="m65.88,30.54c-.02.15-.03.3-.05.45-.02.22-.05.44-.07.67-1.18.11-2.33.22-3.47.32-.16.49-.31.97-.49,1.44-.19.47-.42.92-.65,1.4.73.88,1.48,1.77,2.25,2.68-.12.16-.23.31-.35.45-.51.56-1.01,1.12-1.53,1.68-.28.3-.6.54-.97.76-.94-.71-1.84-1.47-2.74-2.24-.9.65-1.91,1-2.94,1.27-.11,1.18-.22,2.33-.32,3.5-1.37.23-2.72.2-4.11.05-.12-1.16-.25-2.31-.37-3.48-.13-.04-.27-.1-.42-.13-.8-.19-1.55-.5-2.25-.92-.07-.04-.14-.08-.21-.11-.01,0-.03,0-.05-.01-.88.74-1.77,1.48-2.67,2.23-1.12-.8-2.07-1.75-2.88-2.89.73-.89,1.46-1.77,2.2-2.67-.67-.9-1.01-1.96-1.31-3.06-1.11-.11-2.25-.21-3.41-.32-.24-1.34-.29-2.67-.05-4.01,1.16-.17,2.31-.27,3.45-.38.07-.23.16-.45.22-.68.2-.77.54-1.47.97-2.13.02-.04.05-.07.08-.13-.73-.89-1.47-1.79-2.22-2.7.8-1.09,1.71-2.06,2.82-2.87.91.75,1.81,1.49,2.72,2.23.99-.5,1.94-1.06,3.07-1.23.07-1.16.15-2.31.33-3.47.34-.07.67-.1,1-.12.1,0,.2-.03.3-.04.42,0,.84,0,1.26,0,.13.01.26.03.39.04.36.02.72.04,1.11.13.12,1.18.25,2.35.37,3.52,1.05.17,1.92.72,2.82,1.17.91-.75,1.81-1.48,2.71-2.22,1.09.84,2.08,1.75,2.9,2.86-.75.91-1.48,1.81-2.22,2.7.18.33.35.64.5.96.15.32.27.64.38.97.11.33.2.67.31,1.01,1.16.11,2.31.21,3.49.32.02.24.05.47.07.7.01.14.03.29.04.43v1.88Zm-13.42-5.96c-.51-.01-1.01.03-1.5.18-.82.24-1.48.71-2.07,1.32-1.26,1.32-1.64,2.88-1.26,4.63.45,2.07,2.6,4.35,5.9,3.69,2.27-.46,4.39-2.74,3.82-5.82-.31-1.66-1.32-2.81-2.79-3.58-.66-.34-1.38-.44-2.1-.42Z"/>
        <path class="cls-2" d="m20.58,62.02c-1.07-1.39-1.98-2.87-2.64-4.52,1.21-.87,2.42-1.74,3.64-2.63-.39-1.38-.66-2.77-.57-4.23-1.41-.54-2.79-1.08-4.2-1.62.07-.44.12-.86.19-1.28.1-.55.19-1.1.32-1.64.1-.41.25-.8.39-1.2.11-.32.25-.63.38-.96,1.52.2,3,.49,4.5.74.63-1.28,1.56-2.31,2.52-3.32-.03-.07-.06-.13-.09-.2-.57-1.22-1.14-2.45-1.71-3.67q-.09-.19.07-.33c.44-.39.9-.73,1.41-1.03.4-.23.8-.48,1.21-.7.52-.28,1.06-.55,1.62-.74.04-.01.08-.02.15-.04.88,1.22,1.77,2.44,2.66,3.69,1.36-.46,2.78-.59,4.21-.58.52-1.41,1.03-2.81,1.55-4.23,1.76.26,3.45.67,5.07,1.4-.23,1.49-.47,2.98-.7,4.48.21.15.4.31.61.43.76.43,1.44.96,2.06,1.57.16.16.32.32.48.48,1.36-.63,2.71-1.25,4.07-1.88,1.16,1.36,2.03,2.85,2.69,4.5-1.22.9-2.44,1.8-3.69,2.72.35,1.31.61,2.66.52,4.05,1.42.54,2.83,1.06,4.24,1.59-.16,1.79-.68,3.46-1.33,5.11-1.51-.25-3.01-.49-4.52-.74-.6,1.19-1.39,2.23-2.34,3.15.63,1.38,1.25,2.75,1.88,4.12-1.35,1.18-2.87,2.05-4.53,2.72-.02-.03-.06-.08-.1-.13-.8-1.12-1.6-2.25-2.4-3.38-.02-.02-.03-.05-.05-.07-.11-.14-.12-.14-.29-.1-.41.11-.82.24-1.24.34-.68.16-1.38.2-2.08.21-.21,0-.42,0-.64,0-.49,1.45-1.03,2.87-1.61,4.29-1.73-.26-3.42-.65-5.05-1.34.23-1.49.46-2.96.69-4.46-.06-.04-.14-.1-.22-.16-.32-.19-.63-.38-.95-.58-.5-.31-.97-.66-1.39-1.08-.22-.22-.46-.42-.7-.65-1.37.63-2.73,1.25-4.11,1.89Zm13.69-17.52c-.17,0-.35,0-.52,0-.09,0-.17.02-.26.03-1.75.24-3.18,1.06-4.29,2.42-.62.75-.96,1.63-1.18,2.57-.2.87-.26,1.74-.06,2.61.96,4.24,4.75,5.6,7.49,5.08,1.62-.31,2.97-1.12,3.99-2.43.57-.74.91-1.58,1.12-2.48.18-.78.24-1.57.11-2.36-.2-1.23-.72-2.32-1.52-3.26-1.27-1.49-2.93-2.15-4.86-2.2Z"/>
        <g>
          <g>
            <g>
              <g>
                <path class="cls-2" d="m77.54,37.25c-.63-7.2-4.22-14.15-10.97-21.23l1.45-1.38c7.08,7.42,10.85,14.76,11.52,22.43l-1.99.17Z"/>
                <polygon class="cls-2" points="74.93 33.36 78.49 36.58 81.7 33.01 81.85 35.89 78.63 39.45 75.07 36.23 74.93 33.36"/>
              </g>
              <rect class="cls-2" x="62.81" y="11.43" width="2" height="1.99" transform="translate(20.14 60.58) rotate(-58.81)"/>
              <rect class="cls-2" x="58.99" y="9.31" width="2" height="1.99" transform="translate(22.34 58.13) rotate(-61.54)"/>
              <rect class="cls-2" x="55.2" y="7.76" width="2" height="1.98" transform="translate(28.79 58.58) rotate(-70.04)"/>
              <rect class="cls-2" x="50.75" y="6.42" width="2" height="2.2" transform="translate(33.34 56.47) rotate(-77.65)"/>
              <rect class="cls-2" x="46.7" y="5.84" width="2" height="2.12" transform="translate(35.04 53.41) rotate(-83)"/>
            </g>
            <g>
              <g>
                <path class="cls-2" d="m15.99,19.07l-1.38-1.45c7.43-7.08,14.76-10.85,22.43-11.52l.17,1.99c-7.2.63-14.14,4.22-21.23,10.97Z"/>
                <polygon class="cls-2" points="33.33 10.71 36.55 7.15 32.99 3.94 35.86 3.79 39.42 7.01 36.21 10.57 33.33 10.71"/>
              </g>
              <rect class="cls-2" x="11.41" y="20.83" width="1.99" height="2" transform="translate(-12.7 21.14) rotate(-58.83)"/>
              <rect class="cls-2" x="9.28" y="24.65" width="1.99" height="2" transform="translate(-17.17 22.46) rotate(-61.53)"/>
              <rect class="cls-2" x="7.73" y="28.44" width="1.98" height="2" transform="translate(-21.93 27.59) rotate(-70.03)"/>
              <rect class="cls-2" x="6.4" y="32.89" width="2.2" height="2" transform="translate(-27.21 33.96) rotate(-77.65)"/>
              <rect class="cls-2" x="5.82" y="36.94" width="2.12" height="2" transform="translate(-31.62 40.15) rotate(-83.01)"/>
            </g>
          </g>
          <g>
            <g>
              <g>
                <path class="cls-2" d="m8.32,48.99c.63,7.2,4.22,14.15,10.97,21.23l-1.45,1.38c-7.08-7.42-10.85-14.76-11.52-22.43l1.99-.17Z"/>
                <polygon class="cls-2" points="10.93 52.87 7.37 49.66 4.16 53.22 4.01 50.34 7.23 46.78 10.78 50 10.93 52.87"/>
              </g>
              <rect class="cls-2" x="21.05" y="72.81" width="2" height="1.99" transform="translate(-52.51 54.45) rotate(-58.81)"/>
              <rect class="cls-2" x="24.87" y="74.93" width="2" height="1.99" transform="translate(-53.21 62.49) rotate(-61.54)"/>
              <rect class="cls-2" x="28.66" y="76.49" width="2" height="1.98" transform="translate(-53.29 78.91) rotate(-70.04)"/>
              <rect class="cls-2" x="33.1" y="77.61" width="2" height="2.2" transform="translate(-50.08 95.19) rotate(-77.65)"/>
              <rect class="cls-2" x="37.15" y="78.27" width="2" height="2.12" transform="translate(-45.23 107.53) rotate(-83)"/>
            </g>
            <g>
              <g>
                <path class="cls-2" d="m69.87,67.16l1.38,1.45c-7.43,7.08-14.76,10.85-22.43,11.52l-.17-1.99c7.2-.63,14.14-4.22,21.23-10.97Z"/>
                <polygon class="cls-2" points="52.52 75.52 49.31 79.08 52.87 82.29 49.99 82.44 46.44 79.22 49.65 75.66 52.52 75.52"/>
              </g>
              <rect class="cls-2" x="72.46" y="63.4" width="1.99" height="2" transform="translate(-19.67 93.91) rotate(-58.83)"/>
              <rect class="cls-2" x="74.58" y="59.58" width="1.99" height="2" transform="translate(-13.7 98.14) rotate(-61.53)"/>
              <rect class="cls-2" x="76.14" y="55.79" width="1.98" height="2" transform="translate(-2.58 109.89) rotate(-70.03)"/>
              <rect class="cls-2" x="77.26" y="51.35" width="2.2" height="2" transform="translate(10.46 117.69) rotate(-77.65)"/>
              <rect class="cls-2" x="77.92" y="47.3" width="2.12" height="2" transform="translate(21.44 120.82) rotate(-83.01)"/>
            </g>
          </g>
        </g>
      </g>
    </g>
  </g>
</svg>