<?xml version="1.0" encoding="UTF-8"?>
<svg id="Layer_2" data-name="Layer 2" xmlns="http://www.w3.org/2000/svg" viewBox="0 0 85 85">
  <defs>
    <style>
      .cls-1 {
        fill: #58529e;
      }

      .cls-2 {
        fill: #fff;
      }

      .cls-3 {
        fill: #cae3f4;
      }

      .cls-4 {
        fill: #91afc6;
      }

      .cls-5 {
        fill: #7fa6c3;
      }

      .cls-6 {
        fill: #b2cbdd;
      }

      .cls-7 {
        fill: #b9d5ea;
      }
    </style>
  </defs>
  <g id="Layer_1-2" data-name="Layer 1">
    <g>
      <circle class="cls-1" cx="42.5" cy="42.5" r="42.5"/>
      <path class="cls-2" d="m78.48,33.36c.9.28,1.17.86.88,1.85-.84,2.87-1.67,5.75-2.51,8.62-1.57,5.39-3.15,10.77-4.73,16.16-.7,2.39-1.4,4.77-2.1,7.16-.18.62-.49,1.01-1.19,1.01-.29,0-.58.1-.88.06-.16-.14-.35-.07-.53-.07-18.05,0-36.1,0-54.16,0-.18,0-.37.01-.55.02-.63-.08-1.07-.59-1.07-1.23,0-15.69,0-31.38.01-47.07,0-.32-.01-.64-.01-.96,0-.74.31-1.18,1.01-1.41.03,0,.06,0,.1,0,7.35,0,14.69,0,22.04,0,.06,0,.12,0,.18.01.67.25.93.61.93,1.32,0,1.07,0,2.14,0,3.22.02.03.05.06.07.1.16,0,.31,0,.47,0,10.14,0,20.29,0,30.43,0,.58,0,1.15.07,1.73.08.54.01.83.43.97.95,0,3.28,0,6.55-.01,9.83,0,.28.08.37.36.37,2.85-.01,5.7-.01,8.55-.02Zm-41.55,7.16s0-.05.01-.08c.11-.11.23-.21.34-.33,1.95-2.09,3.9-4.18,5.85-6.27.18-.19.35-.39.63-.39.06,0,.11.01.17.01,7.61,0,15.22,0,22.83,0,.12,0,.26.03.36-.08.03-.03.05-.07.08-.1,0-.03.02-.06.03-.09.1-.17.1-.34,0-.52,0-.09,0-.18,0-.27.1-.11.07-.25.07-.37,0-2.13,0-4.26,0-6.4,0-.13.03-.26-.07-.37-.05-.21.04-.43-.06-.63-.23,0-.46,0-.68,0-10.43,0-20.86,0-31.29,0-.18,0-.37-.02-.55-.04-.75-.12-1.1-.54-1.11-1.33,0-.94,0-1.89,0-2.83,0-.15.05-.32-.07-.46H14.14c-.08.35-.1.68-.1,1.02,0,12.42,0,24.84,0,37.25,0,.45,0,.9.01,1.35-.01.08-.07.16.03.22.11-.03.11-.12.11-.2.77-2.21,1.54-4.42,2.31-6.62,1.03-2.96,2.07-5.91,3.1-8.87.3-.86.58-1.72.89-2.57.16-.44.34-.88.88-.95,5.08,0,10.16,0,15.23,0,.11,0,.23.02.31-.09Z"/>
      <path class="cls-4" d="m15.94,68.16c.18,0,.37-.02.55-.02,18.05,0,36.1,0,54.16,0,.18,0,.37-.07.53.07-.16,0-.31.01-.47.01-18.06,0-36.13,0-54.19,0-.19,0-.4.06-.58-.07Z"/>
      <path class="cls-3" d="m48.02,33.36c-2.85,0-5.7,0-8.55.02-.28,0-.36-.09-.36-.37.01-3.28.01-6.55.01-9.83.13.15.07.33.07.5,0,3.04,0,6.09,0,9.13,0,.38.09.49.47.49,2.62-.02,5.25,0,7.87,0,.16,0,.34-.06.49.07Z"/>
      <path class="cls-7" d="m43.65,17.5c-.06,0-.12,0-.18-.01.06-.07.12-.06.18.01Z"/>
      <path class="cls-3" d="m43.6,22.13s-.05-.06-.07-.1c.02.03.05.06.07.1Z"/>
      <path class="cls-5" d="m31.88,33.44c.28-.16.59-.03.88-.09.18,0,.37.01.55.01,5.69,0,11.37,0,17.06,0,1.62,0,3.24,0,4.87,0-.1.11-.24.08-.36.08-7.61,0-15.22,0-22.83,0-.06,0-.11,0-.17-.01Z"/>
      <path class="cls-3" d="m54.76,33.38c-1.62,0-3.24,0-4.87,0-5.69,0-11.37,0-17.06,0-.18,0-.37,0-.55-.01.16-.14.35-.07.53-.07,7.34,0,14.68,0,22.02,0-.03.03-.05.07-.08.1Z"/>
      <path class="cls-5" d="m35.79,40.59c.06-.03.13-.06.19-.09.17,0,.34.01.51.01,4.95,0,9.9,0,14.84,0-.08.11-.2.09-.31.09-5.08,0-10.16,0-15.23,0Z"/>
      <path class="cls-3" d="m51.23,40.51c-4.95,0-9.9,0-14.84,0-.17,0-.34,0-.51-.01.09-.1.21-.08.32-.08,5.02,0,10.03,0,15.05,0,0,.03,0,.05-.01.08Z"/>
      <path class="cls-4" d="m43.53,32.41c0-2.38,0-4.76,0-7.14.11.11.07.24.07.37,0,2.13,0,4.26,0,6.4,0,.13.03.26-.07.37Z"/>
      <path class="cls-4" d="m43.52,33.19c0-.17,0-.34,0-.52.1.17.1.34,0,.52Z"/>
      <path class="cls-6" d="m43.5,59.58s.09.01.14.02c0,.08,0,.17-.11.2-.1-.06-.04-.14-.03-.22Z"/>
    </g>
  </g>
</svg>