<?xml version="1.0" encoding="UTF-8"?>
<svg id="Layer_2" data-name="Layer 2" xmlns="http://www.w3.org/2000/svg" viewBox="0 0 84.91 84.91">
  <defs>
    <style>
      .cls-1 {
        letter-spacing: -.03em;
      }

      .cls-2, .cls-3 {
        fill: #fff;
      }

      .cls-4 {
        fill: #a45ea5;
      }

      .cls-3 {
        font-family: Tahoma, Tahoma;
        font-size: 8px;
      }

      .cls-5 {
        fill: none;
        stroke: #fff;
        stroke-miterlimit: 10;
        stroke-width: 2px;
      }

      .cls-6 {
        letter-spacing: 0em;
      }
    </style>
  </defs>
  <g id="Layer_1-2" data-name="Layer 1">
    <g>
      <circle class="cls-4" cx="42.45" cy="42.45" r="42.45"/>
      <polygon class="cls-2" points="38.99 29.25 38.31 35.49 34.27 35.96 37.92 36.78 45.38 36.78 48.93 36.08 45.17 35.72 44.66 28.78 38.99 29.25"/>
      <rect class="cls-2" x="27.2" y="9.01" width="29.62" height="21.89"/>
      <rect class="cls-4" x="30.33" y="11.56" width="23.61" height="16.42"/>
      <polygon class="cls-2" points="59.84 58.5 59.16 64.74 55.12 65.21 58.77 66.03 66.23 66.03 69.78 65.33 66.02 64.97 65.51 58.03 59.84 58.5"/>
      <rect class="cls-2" x="48.06" y="38.25" width="29.62" height="21.89"/>
      <rect class="cls-4" x="51.18" y="40.81" width="23.61" height="16.42"/>
      <polygon class="cls-2" points="18.14 58.5 17.46 64.74 13.42 65.21 17.07 66.03 24.53 66.03 28.08 65.33 24.32 64.97 23.81 58.03 18.14 58.5"/>
      <rect class="cls-2" x="6.35" y="38.25" width="29.62" height="21.89"/>
      <rect class="cls-4" x="9.47" y="40.81" width="23.61" height="16.42"/>
      <circle class="cls-5" cx="42.39" cy="72.42" r="5.31"/>
      <path class="cls-5" d="m47.7,72.42h13.78c1.47-.48,1.04-2.51,1.04-4.18"/>
      <path class="cls-5" d="m36.49,72.42h-13.78c-1.47-.48-1.04-2.51-1.04-4.18"/>
      <line class="cls-5" x1="42.06" y1="51.83" x2="42.06" y2="39.05"/>
      <line class="cls-5" x1="42.06" y1="56.15" x2="42.06" y2="54.13"/>
      <line class="cls-5" x1="42.06" y1="60.44" x2="42.06" y2="58.42"/>
      <line class="cls-5" x1="42.06" y1="64.68" x2="42.06" y2="62.66"/>
      <line class="cls-5" x1="42.06" y1="73.25" x2="42.06" y2="71.23"/>
      <g>
        <rect class="cls-4" x="35.4" y="13.87" width="38.43" height="11.81"/>
        <g>
          <polygon class="cls-2" points="38.65 15.06 36.47 15.06 39.61 19.52 41.8 19.52 38.65 15.06"/>
          <polygon class="cls-2" points="44.94 15.06 42.75 15.06 45.89 19.52 48.08 19.52 44.94 15.06"/>
          <polygon class="cls-2" points="45.89 19.52 48.08 19.52 44.94 23.97 42.75 23.97 45.89 19.52"/>
          <polygon class="cls-2" points="42.62 19.52 44.81 19.52 41.67 23.97 39.48 23.97 42.62 19.52"/>
          <text class="cls-3" transform="translate(50.09 22.23)"><tspan class="cls-1" x="0" y="0">K</tspan><tspan x="4.48" y="0">est</tspan><tspan class="cls-6" x="14.94" y="0">r</tspan><tspan x="17.78" y="0">el</tspan></text>
        </g>
      </g>
    </g>
  </g>
</svg>