<?xml version="1.0" encoding="UTF-8"?>
<svg id="Layer_2" data-name="Layer 2" xmlns="http://www.w3.org/2000/svg" xmlns:xlink="http://www.w3.org/1999/xlink" viewBox="0 0 85.3 85.3">
  <defs>
    <style>
      .cls-1 {
        fill: #f39320;
      }

      .cls-2 {
        fill: #fff;
      }

      .cls-3 {
        clip-path: url(#clippath);
      }

      .cls-4 {
        clip-rule: evenodd;
        fill: none;
      }
    </style>
    <clipPath id="clippath">
      <polygon class="cls-4" points="13.08 7.42 77.65 7.42 77.65 71.98 13.08 71.98 13.08 7.42 13.08 7.42"/>
    </clipPath>
  </defs>
  <g id="Layer_1-2" data-name="Layer 1">
    <g>
      <circle class="cls-1" cx="42.65" cy="42.65" r="42.65"/>
      <g class="cls-3">
        <g>
          <path class="cls-2" d="m30.01,36.62c6.59-5.39,13.14-10.75,19.74-16.15-.18-.21-.32-.38-.46-.55-2.23-2.56-2.1-6.4.28-8.86,2.38-2.46,6.23-2.7,8.85-.55.26.21.5.44.74.68,5.09,5.09,10.18,10.17,15.26,15.26,1.9,1.9,2.58,4.18,1.77,6.74-.8,2.55-2.63,4.11-5.27,4.57-1.96.34-3.74-.18-5.27-1.48-.14-.12-.28-.25-.43-.37-.03-.02-.07-.03-.17-.07-5.35,6.54-10.71,13.1-16.12,19.7.16.18.31.35.46.51,2.41,2.63,2.33,6.6-.17,9.09-2.55,2.55-6.53,2.69-9.12.2-2.93-2.82-5.77-5.74-8.65-8.61-.17-.17-.36-.34-.65-.63-.18.24-.3.47-.48.65-4.61,4.62-9.22,9.23-13.84,13.84-.18.18-.35.37-.55.51-.45.33-1,.28-1.38-.09-.4-.39-.43-.96-.08-1.43.13-.17.28-.31.43-.46,4.63-4.63,9.25-9.26,13.89-13.88.18-.18.4-.31.65-.5-.26-.28-.42-.46-.59-.63-2.8-2.81-5.61-5.6-8.41-8.42-1.81-1.82-2.42-4.02-1.73-6.47.69-2.48,2.39-4.06,4.9-4.66,2.14-.51,4.07.02,5.75,1.44.21.18.4.36.67.6Zm-4.75-.07c-1.51,0-2.57.48-3.44,1.4-1.72,1.83-1.66,4.46.19,6.32,4.04,4.06,8.09,8.1,12.14,12.15,2.4,2.4,4.79,4.82,7.21,7.2,2.25,2.21,5.85,1.58,7.18-1.22.83-1.73.49-3.65-.94-5.09-2.39-2.41-4.8-4.81-7.21-7.21-4-4.01-8.01-8.01-12.01-12.02-.95-.95-2.02-1.55-3.14-1.53Zm29.06-25.31c-1.85-.02-3.45,1.03-4.15,2.72-.7,1.69-.34,3.5,1.02,4.86,5.15,5.16,10.31,10.33,15.48,15.48,1.79,1.79,4.61,1.83,6.33.13,1.83-1.81,1.83-4.51-.04-6.4-5.15-5.17-10.31-10.32-15.47-15.48-.87-.87-1.92-1.32-3.16-1.31Zm-22.69,26.82c5.31,5.31,10.56,10.57,15.84,15.86,2.46-3.01,4.97-6.07,7.4-9.04-4.77-4.78-9.46-9.47-14.2-14.22-3,2.45-6.04,4.94-9.04,7.39Zm24.76,4.97c2.38-2.91,4.77-5.83,7.09-8.67-4.12-4.12-8.19-8.2-12.29-12.3-2.87,2.34-5.78,4.73-8.67,7.09,4.63,4.64,9.22,9.23,13.87,13.88Z"/>
          <path class="cls-1" d="m25.26,36.56c1.12-.02,2.2.58,3.14,1.53,4,4.01,8.01,8.01,12.01,12.02,2.4,2.4,4.81,4.8,7.21,7.21,1.43,1.44,1.77,3.35.94,5.09-1.34,2.8-4.94,3.43-7.18,1.22-2.43-2.38-4.81-4.8-7.21-7.2-4.05-4.05-8.1-8.09-12.14-12.15-1.85-1.86-1.92-4.48-.19-6.32.86-.92,1.92-1.39,3.44-1.4Z"/>
          <path class="cls-1" d="m54.33,11.25c1.24,0,2.29.44,3.16,1.31,5.16,5.16,10.32,10.32,15.47,15.48,1.87,1.88,1.87,4.58.04,6.4-1.72,1.7-4.54,1.65-6.33-.13-5.17-5.15-10.32-10.32-15.48-15.48-1.36-1.36-1.72-3.17-1.02-4.86.7-1.69,2.3-2.73,4.15-2.72Z"/>
          <path class="cls-1" d="m31.64,38.06c3-2.45,6.04-4.94,9.04-7.39,4.74,4.74,9.43,9.44,14.2,14.22-2.43,2.97-4.93,6.03-7.4,9.04-5.28-5.29-10.54-10.55-15.84-15.86Z"/>
          <path class="cls-1" d="m56.39,43.03c-4.65-4.65-9.24-9.25-13.87-13.88,2.88-2.36,5.8-4.75,8.67-7.09,4.1,4.11,8.17,8.18,12.29,12.3-2.32,2.84-4.71,5.76-7.09,8.67Z"/>
        </g>
      </g>
    </g>
  </g>
</svg>