<?xml version="1.0" encoding="UTF-8"?>
<svg id="Layer_2" data-name="Layer 2" xmlns="http://www.w3.org/2000/svg" viewBox="0 0 85 85">
  <defs>
    <style>
      .cls-1 {
        fill: #f39320;
      }

      .cls-2 {
        fill: #fff;
      }
    </style>
  </defs>
  <g id="Layer_1-2" data-name="Layer 1">
    <g id="f552bfa2-a283-4d3b-9702-774a69e2ce2d">
      <g id="b723f278-4ae6-4e94-8734-186e224db36f">
        <circle class="cls-1" cx="42.5" cy="42.5" r="42.5"/>
        <path class="cls-2" d="m31.52,65.92l-12.4-45.8c-.47-1.74.56-3.53,2.3-4,1.74-.47,3.53.56,4,2.3l.3,1.3c7.4-4,11.8-2.1,16,.4s7.9,5.3,14.3,3.4l1.6-.5c1.32-.47,2.77.21,3.25,1.54.02.05.04.11.05.16l5.9,21.9c.37,1.32-.39,2.7-1.7,3.1l-1.6.5h-.2c-1.1.2-2.1.4-3.2.5-7,.5-11.8-2.8-16.1-4.6-3.3-1.4-6.5-2-10.5.1l-.6.3,4.8,17.7c.47,1.74-.56,3.53-2.29,4,0,0,0,0,0,0-1.68.46-3.42-.54-3.88-2.22,0-.03-.01-.05-.02-.08Z"/>
      </g>
    </g>
  </g>
</svg>