<?xml version="1.0" encoding="UTF-8"?>
<svg id="Layer_2" data-name="Layer 2" xmlns="http://www.w3.org/2000/svg" viewBox="0 0 85 85">
  <defs>
    <style>
      .cls-1 {
        letter-spacing: -.03em;
      }

      .cls-2, .cls-3, .cls-4 {
        fill: #fff;
      }

      .cls-5 {
        fill: #a45ea5;
      }

      .cls-3 {
        fill-rule: evenodd;
      }

      .cls-4 {
        font-family: Tahoma, Tahoma;
        font-size: 8px;
      }

      .cls-6 {
        letter-spacing: 0em;
      }
    </style>
  </defs>
  <g id="Layer_1-2" data-name="Layer 1">
    <g>
      <circle class="cls-5" cx="42.5" cy="42.5" r="42.5"/>
      <path class="cls-3" d="m36.62,27.76c-.02-3.24,2.59-5.87,5.83-5.89.02,0,.05,0,.07,0,3.25.02,5.87,2.64,5.89,5.89.02,3.24-2.58,5.88-5.82,5.9-.02,0-.05,0-.07,0-3.25-.01-5.89-2.65-5.9-5.9Zm21.84-3.09c-1.55-7.34-7.15-13.14-15.94-13.14s-14.3,5.8-16,13.14c-3.09,14.59,7.64,30.24,16,41.74,8.31-11.5,19.13-27.25,15.94-41.74Z"/>
      <g>
        <rect class="cls-5" x="22.76" y="66.9" width="38.43" height="11.81"/>
        <g>
          <polygon class="cls-2" points="26.02 68.1 23.83 68.1 26.97 72.56 29.16 72.56 26.02 68.1"/>
          <polygon class="cls-2" points="32.3 68.1 30.11 68.1 33.25 72.56 35.44 72.56 32.3 68.1"/>
          <polygon class="cls-2" points="33.25 72.56 35.44 72.56 32.3 77.01 30.11 77.01 33.25 72.56"/>
          <polygon class="cls-2" points="29.98 72.56 32.17 72.56 29.03 77.01 26.84 77.01 29.98 72.56"/>
          <text class="cls-4" transform="translate(37.45 75.26)"><tspan class="cls-1" x="0" y="0">K</tspan><tspan x="4.48" y="0">est</tspan><tspan class="cls-6" x="14.94" y="0">r</tspan><tspan x="17.78" y="0">el</tspan></text>
        </g>
      </g>
    </g>
  </g>
</svg>