<?xml version="1.0" encoding="UTF-8"?>
<svg id="Layer_2" data-name="Layer 2" xmlns="http://www.w3.org/2000/svg" viewBox="0 0 84.54 84.54">
  <defs>
    <style>
      .cls-1, .cls-2 {
        fill: #58529e;
      }

      .cls-3 {
        fill: #fff;
      }

      .cls-2 {
        font-family: CopperplateGothic-Bold, 'Copperplate Gothic Bold';
        font-size: 11px;
        font-weight: 700;
      }
    </style>
  </defs>
  <g id="Layer_1-2" data-name="Layer 1">
    <g>
      <circle class="cls-1" cx="42.27" cy="42.27" r="42.27"/>
      <g>
        <circle class="cls-3" cx="29.46" cy="22.51" r="4.68"/>
        <circle class="cls-3" cx="26" cy="37.55" r="4.68"/>
        <circle class="cls-3" cx="36.76" cy="46.26" r="4.68"/>
        <circle class="cls-3" cx="52.28" cy="42.23" r="4.68"/>
        <circle class="cls-3" cx="56.96" cy="28.2" r="4.68"/>
        <circle class="cls-3" cx="47.6" cy="17.7" r="4.68"/>
        <circle class="cls-3" cx="41.43" cy="31.98" r="4.68"/>
        <rect class="cls-3" x="40.45" y="19.39" width="2" height="25.34" transform="translate(-10.17 41.1) rotate(-47.65)"/>
        <path class="cls-3" d="m36.51,47.32l-11.63-8.44,3.73-17.17,19.33-5.12,10.11,11.34h0s.69.79.69.79l-.95.29-3.73,15.36-17.55,2.97Zm-9.11-9.09l9.61,6.97,15.42-2.61,3.14-12.93-28.17,8.56Zm2.91-14.91l-2.78,12.78,27.6-8.39-6.33-6.81.17-.16-1.71-1.92-16.96,4.49Z"/>
        <rect class="cls-3" x="29.27" y="31.45" width="25.72" height="2" transform="translate(-1.77 62.47) rotate(-71.97)"/>
      </g>
      <polygon class="cls-3" points="72.07 69.96 11.9 69.96 5.2 56.94 80.37 57.2 72.07 69.96"/>
      <text class="cls-2" transform="translate(27.82 67.09)"><tspan x="0" y="0">IPv6</tspan></text>
    </g>
  </g>
</svg>