<?xml version="1.0" encoding="UTF-8"?>
<svg id="Layer_2" data-name="Layer 2" xmlns="http://www.w3.org/2000/svg" viewBox="0 0 85 85">
  <defs>
    <style>
      .cls-1 {
        fill: #f39320;
      }

      .cls-2 {
        fill: #fff;
        fill-rule: evenodd;
      }
    </style>
  </defs>
  <g id="Layer_1-2" data-name="Layer 1">
    <g id="f602334c-acbb-4f56-967b-6d52753c0250">
      <g id="a962ca60-00b6-440a-8df3-cd2b6eaef805">
        <circle class="cls-1" cx="42.5" cy="42.5" r="42.5"/>
        <path class="cls-2" d="m20,61.53V16h37.5c4.11-.03,7.47,3.27,7.5,7.38,0,.03,0,.06,0,.09v45.53H27.5c-4.13,0-7.48-3.34-7.5-7.47Zm24.2-8.48c-.01-1.32-1.08-2.4-2.4-2.42h-9c-1.34,0-2.42,1.08-2.42,2.42,0,1.34,1.08,2.42,2.42,2.42h9c1.32-.02,2.39-1.1,2.4-2.42Zm10.5-12.32c-.01-1.32-1.08-2.4-2.4-2.42h-19.6c-1.34.09-2.36,1.24-2.27,2.58.08,1.22,1.05,2.19,2.27,2.27h19.6c1.33-.03,2.39-1.1,2.4-2.43Zm0-12.31c-.02-1.32-1.08-2.39-2.4-2.42h-19.6c-1.34.09-2.36,1.24-2.27,2.58.08,1.22,1.05,2.19,2.27,2.27h19.6c1.33-.02,2.39-1.1,2.4-2.43Z"/>
      </g>
    </g>
  </g>
</svg>