<?xml version="1.0" encoding="UTF-8"?>
<svg id="Layer_2" data-name="Layer 2" xmlns="http://www.w3.org/2000/svg" viewBox="0 0 85 85">
  <defs>
    <style>
      .cls-1 {
        letter-spacing: -.03em;
      }

      .cls-2, .cls-3 {
        fill: #fff;
      }

      .cls-4 {
        fill: #a45ea5;
      }

      .cls-3 {
        font-family: Tahoma, Tahoma;
        font-size: 8px;
      }

      .cls-5 {
        letter-spacing: 0em;
      }
    </style>
  </defs>
  <g id="Layer_1-2" data-name="Layer 1">
    <g>
      <circle class="cls-4" cx="42.5" cy="42.5" r="42.5"/>
      <g>
        <path class="cls-2" d="m22.74,10.93c.43.37.99.25,1.48.38,2.07.55,3.88,1.55,5.58,2.85,2.3,1.77,3.63,4.09,4.4,6.82.08.27.23.35.47.35,2.08,0,4.16,0,6.31,0,0-1.05.03-2.04,0-3.03-.05-1.29.74-2.58,1.77-2.9,1.39-.43,2.67-.4,3.74.83.54.62.72,1.39.74,2.19.03.95,0,1.9,0,2.88h10.4c0-1.09-.03-2.19,0-3.29.03-1,.45-1.83,1.33-2.36,1.76-1.07,4.33-.41,4.79,1.94.24,1.21.03,2.43.15,3.65.24.17.51.08.77.09,1.68.08,3.37-.17,5.04.14,1.4.26,2.38,1.44,2.43,2.87.02.62.04,1.24.04,1.86,0,13.66,0,27.32,0,40.99,0,.95-.02,1.9-.59,2.73-.58.84-1.37,1.37-2.4,1.37-16.35.01-32.71.01-49.06.01-.31,0-.62-.02-.93.02-1.5.19-3.36-1.27-3.34-3.14.05-3.75.02-7.51.02-11.26,0-2.8,0-5.6,0-8.4,0-3.62,0-7.24,0-10.86,0-.48-.13-.69-.59-.92-1.8-.9-3.38-2.07-4.64-3.7-.98-1.26-1.81-2.56-2.33-4.07-.73-2.09-.92-4.21-.63-6.41.3-2.26,1.08-4.32,2.46-6.12,2.17-2.83,4.95-4.71,8.54-5.29.28-.04.62,0,.86-.24h3.2Zm9.73,12.12c-.09-1.47-.59-2.83-1.29-4.1-.73-1.33-1.75-2.46-2.97-3.38-1.7-1.29-3.58-2.19-5.74-2.38-.14-.29-.32-.32-.54-.09-.58-.11-1.15-.1-1.73,0-.22-.22-.41-.19-.54.1-.68.02-1.35.12-2,.33-2.63.87-4.71,2.44-6.24,4.76-1.67,2.53-2.09,5.31-1.61,8.26.52,3.16,2.23,5.56,4.8,7.39,2.39,1.69,5.05,2.32,7.95,1.93,1.43-.19,2.76-.7,4.03-1.4,1.37-.75,2.49-1.77,3.5-2.95,1.4-1.63,2.14-3.52,2.37-5.64.15-.06.31-.11.07-.27.16-.76.15-1.51,0-2.27.24-.16.07-.21-.08-.27Zm7.14,46.19c.18.28.37.33.56,0,.51,0,1.02,0,1.53,0,8.47,0,16.95-.01,25.42-.02.67,0,1.33.02,2,0,.46-.02.85-.22.87-.73.02-.64.14-1.27.14-1.91-.01-9.91,0-19.81,0-29.72,0-.27,0-.53,0-.78-.93-.37-1.05-.54-1.05-1.48,0-.62.02-1.24,0-1.87-.02-.44.18-.76.57-.85.47-.11.49-.4.49-.77,0-1.91,0-3.82,0-5.73,0-1.8-.16-1.96-1.96-1.96-1.41,0-2.82,0-4.29,0,0,1.04,0,1.99,0,2.94-.02,1.75-1.16,3.1-2.84,3.37-1.56.25-3.35-1.24-3.39-2.86-.03-1.13,0-2.25,0-3.41h-10.4c0,.61,0,1.19,0,1.76,0,.68.04,1.37-.12,2.04-.29,1.26-1.78,2.56-2.91,2.46-1.95-.18-3.27-1.31-3.22-3.37.02-.95,0-1.89,0-2.86-2.17-.09-4.26-.07-6.3-.05.13,4.56-1.26,8.37-4.77,11.28-3.48,2.88-7.46,3.87-11.95,2.99,0,.34,0,.6,0,.86,0,9.75,0,19.5,0,29.25,0,1.13.25,1.43,1.37,1.43,1.91,0,3.82,0,5.72,0,4.86,0,9.71,0,14.57-.01Zm3.46-46.79s0,0,0,0c0,1.38-.01,2.75.01,4.13,0,.26-.08.54.22.77.39.29.75.3,1.17.14.46-.17.64-.54.64-.99.01-2.73.01-5.46,0-8.19,0-.7-.49-1.18-1.12-1.1-.63.08-.93.31-.93,1.11,0,1.38,0,2.75,0,4.13Zm16.64-.07c0,1.38,0,2.75,0,4.13,0,.61.4,1.07.9,1.09.66.03,1.13-.39,1.14-1.09.02-2.73.01-5.46,0-8.18,0-.69-.49-1.18-1.12-1.1-.64.08-.93.32-.93,1.11,0,1.35,0,2.71,0,4.06Z"/>
        <path class="cls-2" d="m35.63,45.58c1.45-.09,2.83-.18,4.21-.27.47-.03.7-.35.87-.76.74-1.86,1.51-3.72,2.24-5.59.19-.48.48-.7.98-.71.52-.02.86.18,1.06.69.74,1.85,1.51,3.68,2.24,5.54.23.58.54.84,1.2.85,2.04.04,4.06.28,6.08.52.47.05.78.29.93.72.15.43-.02.78-.34,1.07-1.33,1.23-2.67,2.43-4.08,3.57-.34.28-.6.65-.99.87-.24.14-.17.4-.12.61.5,2.08,1,4.16,1.52,6.23.1.41.06.79-.27,1.01-.35.23-.74.47-1.21.18-1.81-1.12-3.64-2.21-5.44-3.35-.39-.25-.64-.26-1.06-.03-1.16.63-2.2,1.44-3.42,2-.72.33-1.41.85-2.08,1.32-.33.24-.57.27-.89.06-.35-.23-.69-.52-.6-.95.36-1.66.76-3.31,1.16-4.95.12-.51.19-1.02.39-1.52.09-.22.01-.44-.23-.67-1.57-1.51-3.34-2.8-4.85-4.38-.67-.71-.66-1.26.04-1.69.29-.18.66-.16.95-.17.59-.03,1.17-.22,1.7-.18Zm3.61,11.22c1.38-.8,2.64-1.5,3.86-2.26.57-.36,1.07-.41,1.64-.06,1.12.68,2.24,1.36,3.37,2.03.12.07.24.21.42.09.19-.13.12-.27.07-.45-.32-1.24-.59-2.5-.91-3.74-.13-.5-.07-.91.32-1.26.64-.57,1.3-1.13,1.92-1.72.58-.56,1.28-.99,1.83-1.68-1.4-.24-2.75-.31-4.09-.42-.84-.07-1.65-.12-2-1.12-.38-1.09-.84-2.16-1.29-3.22-.11-.26-.14-.61-.53-.74-.56,1.4-1.1,2.77-1.67,4.14-.2.47-.46.82-1.11.85-.46.02-.97.04-1.41.13-.78.17-1.58-.03-2.35.22-.24.08-.58,0-.7.25-.15.3.19.47.37.64.79.74,1.59,1.47,2.42,2.15.72.59,1.07,1.15.7,2.18-.43,1.21-.56,2.53-.86,4.01Z"/>
        <path class="cls-2" d="m43.95,63c7.48,0,14.95,0,22.43,0,.2,0,.4-.02.6.01.67.1,1.11.6,1.01,1.15-.12.65-.77,1.13-1.4.97-.29-.08-.57-.07-.85-.07-14.75,0-29.51,0-44.26,0-.52,0-1.06.09-1.36-.55-.29-.63.04-1.37.74-1.48.26-.04.53-.03.8-.03,7.43,0,14.86,0,22.3,0Z"/>
        <path class="cls-2" d="m63.87,33.73c.13-.44-.19-1.01.23-1.55.34-.43.72-.35,1.11-.3.41.06.67.39.69.78.05.73.06,1.46,0,2.18-.06.71-.58,1.18-1.11,1.14-.59-.05-.92-.51-.93-1.29,0-.29,0-.57,0-.96Z"/>
        <path class="cls-2" d="m45.09,32.79c.01.66.04,1.33.03,1.99-.01.61-.6,1.22-1.1,1.2-.52-.02-.94-.55-.94-1.21,0-.64.01-1.29,0-1.93-.02-.53.13-.91.71-.99.87-.12,1.09.01,1.3.78-.12.06-.12.11,0,.16Z"/>
        <path class="cls-2" d="m48.28,33.81c0-.38.01-.75,0-1.13-.02-.56.28-.78.8-.83.57-.05,1.14.01,1.2.7.08.81.07,1.64.01,2.46-.03.5-.69,1-1.11.97-.52-.04-.9-.52-.91-1.17,0-.33,0-.67,0-1h.01Z"/>
        <path class="cls-2" d="m55.49,32.65c.01.71.05,1.42.03,2.12-.02.69-.5,1.21-1.05,1.21-.6,0-.99-.48-1-1.21,0-.71,0-1.42,0-2.13,0-.44.24-.76.65-.77.45-.01,1.08-.27,1.24.5-.03.12-.03.23.12.27Z"/>
        <path class="cls-2" d="m32.67,33.75c-.09-.42,0-.79-.03-1.16-.05-.46.37-.72.75-.77.49-.06,1.01.07,1.19.63.26.84.2,1.71.1,2.56-.07.59-.66,1.03-1.14.98-.48-.05-.85-.56-.87-1.22,0-.36,0-.71,0-1.01Z"/>
        <path class="cls-2" d="m37.87,33.65c0-.24,0-.49,0-.73.02-.85.18-1.04.9-1.06.68-.02,1.08.3,1.12.99.04.64.05,1.29.02,1.93-.02.6-.54,1.18-1.01,1.21-.39.03-1.07-.48-1.09-.9-.02-.48.05-.96.08-1.43,0,0-.02,0-.03,0Z"/>
        <path class="cls-2" d="m58.67,33.72c.12-.43-.18-1,.24-1.55.34-.44.72-.34,1.11-.3.42.05.66.39.68.77.06.81.09,1.64-.05,2.45-.1.54-.47.89-1.05.88-.54,0-.91-.47-.93-1.08-.01-.35,0-.71,0-1.17Z"/>
        <path class="cls-2" d="m22.11,20.49c0,1,.01,2,0,2.99,0,.43.14.75.44,1.05,1.44,1.41,2.85,2.85,4.28,4.27.4.4.59.83.28,1.36-.41.71-1.05.81-1.63.22-1.68-1.67-3.35-3.36-5.03-5.03-.28-.28-.4-.61-.4-1.01.01-2.37,0-4.75,0-7.12,0-.6.4-1.07.91-1.1.64-.04,1.12.4,1.13,1.09.02,1.09,0,2.17,0,3.26h0Z"/>
      </g>
      <g>
        <rect class="cls-4" x="23.33" y="66.14" width="38.43" height="11.81"/>
        <g>
          <polygon class="cls-2" points="26.59 67.33 24.4 67.33 27.54 71.79 29.73 71.79 26.59 67.33"/>
          <polygon class="cls-2" points="32.87 67.33 30.68 67.33 33.82 71.79 36.01 71.79 32.87 67.33"/>
          <polygon class="cls-2" points="33.82 71.79 36.01 71.79 32.87 76.24 30.68 76.24 33.82 71.79"/>
          <polygon class="cls-2" points="30.55 71.79 32.74 71.79 29.6 76.24 27.41 76.24 30.55 71.79"/>
          <text class="cls-3" transform="translate(38.02 74.5)"><tspan class="cls-1" x="0" y="0">K</tspan><tspan x="4.48" y="0">est</tspan><tspan class="cls-5" x="14.94" y="0">r</tspan><tspan x="17.78" y="0">el</tspan></text>
        </g>
      </g>
    </g>
  </g>
</svg>