<?xml version="1.0" encoding="UTF-8"?>
<svg id="Layer_2" data-name="Layer 2" xmlns="http://www.w3.org/2000/svg" viewBox="0 0 85 85">
  <defs>
    <style>
      .cls-1 {
        fill: #f39320;
      }

      .cls-2 {
        fill: #fff;
        fill-rule: evenodd;
      }
    </style>
  </defs>
  <g id="Layer_1-2" data-name="Layer 1">
    <g id="be3d1c64-891d-4d38-9444-14bcdcb65c98">
      <g id="fdb883d6-fbf0-4629-9f63-8f47f48c3553">
        <circle class="cls-1" cx="42.5" cy="42.5" r="42.5"/>
        <path class="cls-2" d="m16.46,68.51l-.6-.6c-2.47-2.45-2.48-6.43-.03-8.9.01-.01.02-.02.03-.03l10.42-10.41c-.62-1.5.08-3.22,1.58-3.84,1.07-.44,2.29-.22,3.14.56l1.79,1.79,2.68-2.68-4.07-4.07c-4.61,1.22-9.53-.1-12.9-3.47-2.77-2.73-4.19-6.55-3.87-10.42v-.1l.1-.89c.1-.74.78-1.26,1.52-1.16.29.04.56.17.76.37l5,5c1.41,1.45,3.74,1.48,5.19.07.02-.02.05-.05.07-.07l3-3c1.45-1.41,1.48-3.74.07-5.19-.02-.02-.05-.05-.07-.07l-5-5c-.52-.52-.53-1.37,0-1.9.21-.21.49-.35.79-.38l.94-.12h.1c7.36-.55,13.77,4.96,14.33,12.32.11,1.51-.03,3.03-.43,4.49l4,4.07,12-12c-.61-.87-.49-2.06.29-2.78l5-5,7.05,7-5,5c-.77.68-1.89.8-2.78.29l-12,11.81,19.58,19.59c2.47,2.45,2.48,6.43.03,8.9-.01.01-.02.02-.03.03l-.6.59c-2.45,2.47-6.43,2.48-8.9.03-.01-.01-.02-.02-.03-.03l-19.54-19.54-2.68,2.67,1.79,1.79c1.16,1.14,1.17,3,.03,4.16-.87.88-2.19,1.12-3.31.61l-10.42,10.41c-2.41,2.52-6.4,2.61-8.92.2-.03-.03-.07-.06-.1-.1Zm49.9-2.78c1.32-1.31,1.32-3.45,0-4.77-1.31-1.32-3.45-1.32-4.77,0s-1.32,3.45,0,4.77c0,0,0,0,0,0,1.32,1.29,3.44,1.29,4.76,0Z"/>
      </g>
    </g>
  </g>
</svg>