<?xml version="1.0" encoding="UTF-8"?>
<svg id="Layer_2" data-name="Layer 2" xmlns="http://www.w3.org/2000/svg" viewBox="0 0 85 85">
  <defs>
    <style>
      .cls-1 {
        fill: #f39320;
      }

      .cls-2 {
        fill: #fff;
      }
    </style>
  </defs>
  <g id="Layer_1-2" data-name="Layer 1">
    <g id="a41d274b-4cb2-4735-868a-e56476fab890">
      <g id="e43aea6f-8904-420e-80d2-e5d5a76d11f3">
        <circle class="cls-1" cx="42.5" cy="42.5" r="42.5"/>
        <path class="cls-2" d="m63.59,44.88c-1.31-1.31-1.31-3.44,0-4.75l9.41-9.41c.34-.34.35-.89,0-1.23-.17-.17-.39-.26-.63-.26h-13.25c-1.85,0-3.35-1.5-3.36-3.35v-13.3c-.02-.48-.43-.85-.91-.83-.21,0-.42.1-.57.25l-9.42,9.41c-1.31,1.31-3.43,1.31-4.74,0,0,0,0,0,0,0l-9.42-9.41c-.34-.34-.89-.33-1.23.01-.16.16-.25.38-.25.6v13.3c0,1.85-1.51,3.35-3.36,3.35h-13.26c-.48.02-.86.42-.84.9,0,.21.09.41.23.56l9.42,9.41c1.31,1.31,1.31,3.44,0,4.75l-9.42,9.41c-.34.34-.35.89,0,1.23.17.17.39.26.63.26h13.25c1.85,0,3.35,1.5,3.36,3.35v13.29c0,.48.4.87.88.86.22,0,.44-.09.6-.25l9.42-9.41c1.31-1.31,3.43-1.31,4.74,0,0,0,0,0,0,0l9.42,9.38c.34.34.89.33,1.23-.01.16-.16.25-.38.25-.6v-13.26c0-1.85,1.51-3.35,3.36-3.35h13.26c.48,0,.87-.39.87-.87,0-.23-.09-.46-.26-.62l-9.41-9.41Zm-9.21-.82c-.85,6.57-6.87,11.21-13.44,10.36-6.57-.85-11.21-6.87-10.36-13.44.7-5.41,4.96-9.66,10.36-10.36,6.57-.85,12.59,3.79,13.44,10.36.13,1.02.13,2.06,0,3.08Z"/>
        <path class="cls-2" d="m42.5,36.9c-3.09,0-5.6,2.51-5.6,5.6s2.51,5.6,5.6,5.6,5.6-2.51,5.6-5.6h0c0-3.09-2.51-5.6-5.6-5.6Z"/>
      </g>
    </g>
  </g>
</svg>