<?xml version="1.0" encoding="UTF-8"?>
<svg id="Layer_2" data-name="Layer 2" xmlns="http://www.w3.org/2000/svg" viewBox="0 0 84.64 84.64">
  <defs>
    <style>
      .cls-1 {
        fill: #58529e;
      }

      .cls-2 {
        fill: #fff;
      }
    </style>
  </defs>
  <g id="Layer_1-2" data-name="Layer 1">
    <g>
      <circle class="cls-1" cx="42.32" cy="42.32" r="42.32"/>
      <g>
        <path class="cls-2" d="m72.65,19.86c-.17.18-.31.35-.47.5-8.79,8.59-17.58,17.18-26.38,25.76-2.01,1.96-4.85,1.96-6.86.02-.89-.86-1.78-1.73-2.67-2.59-7.85-7.63-15.7-15.27-23.56-22.89-.24-.24-.55-.41-.91-.68,1.1-.66,2.07-.89,3.12-.89,7.65,0,15.3,0,22.96,0,10.54,0,21.08,0,31.62,0,1.12,0,2.14.23,3.15.78Z"/>
        <path class="cls-2" d="m32.92,44.72c1.08,1.06,2.32,2.29,3.58,3.51,3.49,3.37,8.28,3.36,11.78-.03,1.21-1.17,2.42-2.32,3.58-3.43,6.87,6.69,13.75,13.38,20.63,20.08-.75.45-1.7.7-2.72.7-9.92,0-19.84,0-29.77,0-8.27,0-16.54,0-24.81,0-1.14,0-2.2-.19-3.23-.79,6.98-6.68,13.93-13.33,20.95-20.05Z"/>
        <path class="cls-2" d="m54.39,42.18c6.81-6.51,13.73-13.13,20.75-19.84.15.82.45,1.71.45,2.61.03,9.9.02,19.8.02,29.7,0,1.7.05,3.41-.02,5.11-.04.87-.3,1.72-.46,2.58-6.96-6.76-13.81-13.43-20.74-20.17Z"/>
        <path class="cls-2" d="m9.51,22.12c7.04,6.83,13.88,13.47,20.75,20.14-6.9,6.6-13.84,13.22-20.76,19.83-.32-.51-.49-1.36-.49-2.25,0-7.24,0-14.48,0-21.71,0-4.46-.02-8.92.02-13.37,0-.84.29-1.67.48-2.64Z"/>
      </g>
    </g>
  </g>
</svg>