<?xml version="1.0" encoding="UTF-8"?>
<svg id="Layer_2" data-name="Layer 2" xmlns="http://www.w3.org/2000/svg" xmlns:xlink="http://www.w3.org/1999/xlink" viewBox="0 0 84.54 84.54">
  <defs>
    <style>
      .cls-1 {
        fill: #58529e;
      }

      .cls-2 {
        fill: #fff;
      }

      .cls-3 {
        clip-path: url(#clippath);
      }

      .cls-4 {
        clip-rule: evenodd;
        fill: none;
      }
    </style>
    <clipPath id="clippath">
      <polygon class="cls-4" points="12.79 7.42 81.39 7.42 81.39 71.76 12.79 71.76 12.79 7.42 12.79 7.42"/>
    </clipPath>
  </defs>
  <g id="Layer_1-2" data-name="Layer 1">
    <circle class="cls-1" cx="42.27" cy="42.27" r="42.27"/>
    <g class="cls-3">
      <path class="cls-2" d="m21.8,71.76c-.65-.02-1.3-.05-1.95-.06-1.33-.03-2.65-.05-3.98-.08-.1,0-.21,0-.31-.03-1.11-.3-2.52-1.91-2.52-3.03,0-2.12-.11-4.24-.11-6.35,0-10.92.04-21.84.07-32.76,0-.3.18-.61.33-.89.43-.85,1.1-1.47,1.98-1.83.29-.12.63-.18.95-.19,1.3-.06,2.6-.1,3.92-.14v3.22c-.08,0-.17.02-.26.02-.5,0-1,.04-1.5,0-.91-.08-1.55.37-2.13.97-.05.05-.07.14-.09.21-.01.08,0,.16,0,.24,0,12.03,0,24.05,0,36.08,0,.28.1.45.29.65.57.61,1.26.83,2.08.77.49-.03.98-.02,1.47,0,.27.01.4-.07.53-.32,2.53-5.12,5.05-10.25,7.61-15.35,1.35-2.69,2.76-5.34,4.18-8,.26-.48.64-.92,1.03-1.31.19-.19.53-.3.81-.31,2.21-.07,4.42-.14,6.63-.16,6.91-.06,13.83-.1,20.74-.15.51,0,1.02,0,1.61,0v-9.2c.52-.02.92.1,1.29.31,1.27.72,1.91,1.79,1.91,3.28,0,1.77.07,3.54.11,5.31,0,.11.02.23.03.37.16,0,.3,0,.43,0,3.59,0,7.17,0,10.76.02.62,0,1.23.03,1.85.07.93.06,1.44.46,1.73,1.35.03.08.07.16.1.25v.77c-.08.16-.17.32-.25.48-3.96,7.57-7.92,15.14-11.86,22.72-.61,1.17-1.44,2.1-2.57,2.77-.21.12-.47.21-.7.22-7.34.02-14.69.03-22.03.05-.13,0-.25.03-.38.04h-21.8Z"/>
      <path class="cls-2" d="m60.73,40.86h-2.48c0-.15,0-.29,0-.44-.02-5.08-.04-10.15-.07-15.23-.01-1.7-.08-3.4-.12-5.1,0-.03,0-.07,0-.1-.04-.71-.06-.75-.76-.77-1.88-.06-3.77-.1-5.65-.13-.6-.01-1.17-.1-1.54-.63-.11-.16-.22-.36-.22-.54-.03-2.25-.04-4.49-.05-6.74,0-.12,0-.23-.02-.35-.08-.61-.15-.67-.77-.69-6.38-.22-12.76-.16-19.14-.08-1.29.02-2.58.06-3.88.09-.62.02-.65.04-.65.65-.05,7.15-.11,14.3-.14,21.44-.02,7.1,0,14.2-.01,21.31,0,.22-.05.46-.15.66-.59,1.16-1.19,2.31-1.8,3.47-.06.12-.15.22-.23.33-.04,0-.08,0-.12,0-.07-.24-.2-.49-.21-.73-.06-2.42-.13-4.84-.13-7.26,0-11.15,0-22.31.01-33.46,0-2.11.06-4.21.11-6.32.03-1.37,1.22-2.57,2.59-2.6,2.39-.06,4.77-.12,7.16-.12,6,0,11.99.03,17.99.06,1.26,0,1.28-.01,2.13.9,2.57,2.76,5.12,5.54,7.69,8.3.34.37.48.75.48,1.27-.02,7.44-.01,14.88-.01,22.32,0,.16,0,.32,0,.5Z"/>
      <path class="cls-2" d="m41.64,34.64c-4.06,0-8.12-.01-12.18.01-.52,0-.87-.16-1.19-.54-.54-.66-.53-1.63.1-2.2.18-.16.46-.3.7-.31,3.43-.07,6.86-.14,10.29-.15,4.9-.03,9.8,0,14.7-.03.75,0,1.04.54,1.35,1.03.29.46.2.97-.14,1.4-.19.24-.39.47-.62.66-.12.1-.32.13-.48.13-4.18,0-8.36,0-12.53,0Z"/>
      <path class="cls-2" d="m41.29,25.09c-3.94,0-7.89-.02-11.83.02-.6,0-.96-.24-1.27-.66-.35-.48-.42-1.03-.2-1.59.19-.49.58-.75,1.1-.76,1.28-.05,2.56-.11,3.84-.12,5.86-.01,11.73-.01,17.59,0,1.24,0,2.49.08,3.73.1.58,0,.93.29,1.15.79.23.53.18,1.04-.16,1.52-.44.62-1.11.68-1.78.7-1.36.04-2.72.07-4.08.07-2.7.01-5.4,0-8.1,0,0-.02,0-.04,0-.07Z"/>
    </g>
  </g>
</svg>