<?xml version="1.0" encoding="UTF-8"?>
<svg id="Layer_2" data-name="Layer 2" xmlns="http://www.w3.org/2000/svg" xmlns:xlink="http://www.w3.org/1999/xlink" viewBox="0 0 84.54 84.54">
  <defs>
    <style>
      .cls-1 {
        letter-spacing: -.03em;
      }

      .cls-2, .cls-3 {
        fill: #fff;
      }

      .cls-4 {
        fill: #a45ea5;
      }

      .cls-3 {
        font-family: Tahoma, Tahoma;
        font-size: 8px;
      }

      .cls-5 {
        clip-path: url(#clippath);
      }

      .cls-6 {
        clip-rule: evenodd;
        fill: none;
      }

      .cls-7 {
        letter-spacing: 0em;
      }
    </style>
    <clipPath id="clippath">
      <polygon class="cls-6" points="8.79 6.76 76.21 6.76 76.21 76.09 8.79 76.09 8.79 6.76 8.79 6.76"/>
    </clipPath>
  </defs>
  <g id="Layer_1-2" data-name="Layer 1">
    <g>
      <circle class="cls-4" cx="42.27" cy="42.27" r="42.27"/>
      <g class="cls-5">
        <path class="cls-2" d="m38.75,6.76c.64.09,1.28.17,1.91.28,2.46.43,4.7,1.39,6.71,2.87.53.39,1.08.53,1.74.51,3.33-.13,6.36.82,9.07,2.75,1.2.85,2.27,1.85,3.12,3.04.51.71,1.21.84,1.99.94,4.34.58,7.77,2.7,10.27,6.28,1.92,2.75,2.75,5.85,2.55,9.2-.36,6.02-4.39,11.18-10.17,13.07-.46.15-.94.26-1.43.4-.15-2,.18-3.96-.25-5.92.07-.03.14-.07.23-.11,3.2-1.27,5.18-3.59,5.74-6.98.78-4.75-2.36-9.07-6.86-10.07-.94-.21-1.88-.27-2.84-.16-1.18.13-2.31-.5-2.88-1.64-.63-1.25-1.46-2.33-2.58-3.18-2.12-1.61-4.5-2.17-7.12-1.68-1.15.22-2.1-.1-2.93-.9-1.49-1.42-3.26-2.31-5.29-2.71-5.53-1.07-10.91,2.3-12.35,7.78-.43,1.64-1.9,2.42-3.32,2.31-2.74-.2-5.08.78-6.97,2.76-1.77,1.86-2.62,4.12-2.41,6.67.31,3.75,2.3,6.35,5.79,7.78.09.04.17.07.27.11-.44,1.94-.11,3.91-.26,5.94-.62-.18-1.25-.32-1.84-.55-5.21-2.01-8.51-5.74-9.53-11.23-.95-5.14.6-9.61,4.34-13.27,2.07-2.02,4.58-3.25,7.42-3.8.09-.02.19-.03.28-.04.84-.08,1.39-.51,1.79-1.28,2.54-4.93,6.57-7.9,12.01-8.94.55-.11,1.11-.15,1.67-.23.71,0,1.41,0,2.12,0Z"/>
        <path class="cls-2" d="m42.53,27.95c5.6,0,11.21,0,16.81,0,.58,0,1.12.09,1.57.49.44.4.67.9.67,1.5,0,2.24,0,4.47,0,6.71,0,1.13-.85,1.98-1.99,1.99-3.67,0-7.35,0-11.02,0-7.68,0-15.35,0-23.03,0-1.09,0-1.86-.59-2.08-1.59-.04-.17-.03-.35-.03-.53,0-2.14.03-4.29-.02-6.43-.03-1.13.83-2.16,2.17-2.16,5.65.03,11.3.01,16.95.01Zm13.82,5.38h-8.6v2.81h8.6v-2.81Zm-29.35-.7c.67,0,1.21-.54,1.22-1.2,0-.67-.55-1.23-1.23-1.23-.67,0-1.21.54-1.22,1.2,0,.67.55,1.23,1.23,1.23Z"/>
        <path class="cls-2" d="m42.65,51.55c5.63,0,11.26,0,16.89,0,.56,0,1.08.09,1.51.48.45.4.69.89.69,1.49,0,2.25,0,4.5,0,6.75,0,1.11-.85,1.97-1.96,1.98-.87,0-1.74,0-2.61,0-10.47,0-20.94,0-31.4.01-1.15,0-1.97-.71-2.14-1.61-.03-.17-.03-.35-.03-.53,0-2.14,0-4.29,0-6.43,0-1.33.79-2.14,2.12-2.14,3.12,0,6.24,0,9.36,0,2.53,0,5.06,0,7.6,0Zm13.85,5.37h-8.6v2.83h8.6v-2.83Zm-29.36-3.11c-.68,0-1.24.56-1.23,1.23,0,.66.56,1.2,1.23,1.2.68,0,1.24-.56,1.23-1.23-.01-.67-.55-1.2-1.23-1.2Z"/>
        <path class="cls-2" d="m42.51,39.75c5.62,0,11.23,0,16.85,0,.6,0,1.15.1,1.59.53.4.38.63.85.63,1.41,0,2.27,0,4.55,0,6.82,0,1.05-.86,1.9-1.9,1.93-.07,0-.14,0-.21,0-11.3,0-22.61,0-33.91,0-.62,0-1.16-.17-1.59-.62-.35-.36-.54-.8-.54-1.3,0-2.28,0-4.57,0-6.85,0-1,.82-1.84,1.81-1.9.18-.01.35-.01.53-.01,5.58,0,11.16,0,16.74,0Zm5.23,8.2h8.6v-2.83h-8.6v2.83Zm-20.74-5.94c-.68,0-1.24.55-1.24,1.22,0,.66.55,1.21,1.22,1.21.68,0,1.24-.55,1.24-1.22,0-.66-.55-1.2-1.22-1.21Z"/>
        <path class="cls-2" d="m36.59,70.09c0-.35.02-.65,0-.95-.03-.35.06-.47.44-.46.93.03,1.86,0,2.79,0h.42v-5.29h4.51v5.29c.39,0,.74,0,1.08,0,.75,0,1.51,0,2.26,0,.24,0,.34.06.33.32-.02.35,0,.7,0,1.08h12.72v4.52h-12.72v1.39h-11.82v-1.37h-12.74v-4.53h12.73Z"/>
      </g>
      <g>
        <rect class="cls-4" x="34.31" y="52.95" width="38.43" height="11.81"/>
        <g>
          <polygon class="cls-2" points="37.57 54.15 35.38 54.15 38.52 58.6 40.71 58.6 37.57 54.15"/>
          <polygon class="cls-2" points="43.85 54.15 41.67 54.15 44.81 58.6 46.99 58.6 43.85 54.15"/>
          <polygon class="cls-2" points="44.81 58.6 46.99 58.6 43.85 63.06 41.67 63.06 44.81 58.6"/>
          <polygon class="cls-2" points="41.54 58.6 43.72 58.6 40.58 63.06 38.4 63.06 41.54 58.6"/>
          <text class="cls-3" transform="translate(49 61.31)"><tspan class="cls-1" x="0" y="0">K</tspan><tspan x="4.48" y="0">est</tspan><tspan class="cls-7" x="14.94" y="0">r</tspan><tspan x="17.78" y="0">el</tspan></text>
        </g>
      </g>
    </g>
  </g>
</svg>