<?xml version="1.0" encoding="UTF-8"?>
<svg id="Layer_2" data-name="Layer 2" xmlns="http://www.w3.org/2000/svg" viewBox="0 0 84.54 84.54">
  <defs>
    <style>
      .cls-1, .cls-2, .cls-3 {
        fill: #58529e;
      }

      .cls-4 {
        fill: #fff;
      }

      .cls-2 {
        font-family: MyriadConceptRoman-BoldCondensed, 'Myriad Variable Concept';
        font-size: 5px;
        font-variation-settings: 'wght' 700, 'wdth' 70;
      }

      .cls-2, .cls-3 {
        font-weight: 700;
      }

      .cls-3 {
        font-family: CopperplateGothic-Bold, 'Copperplate Gothic Bold';
        font-size: 14px;
      }
    </style>
  </defs>
  <g id="Layer_1-2" data-name="Layer 1">
    <g>
      <circle class="cls-1" cx="42.27" cy="42.27" r="42.27"/>
      <path class="cls-4" d="m67.64,68.93c-4.12,9.08-40.84.73-46.69,6.39l-6.97-59.27,48.91-6.07s7.87,52.02,4.75,58.95Z"/>
      <g>
        <path class="cls-1" d="m52.64,23.23l.68-.06-.07-.84h-.02s-.06-.67-.06-.67h0s-.2-2.64-.2-2.64l-14.32,1.06c-.84-1.85-2.71-3.15-4.87-3.15-2.95,0-5.35,2.4-5.35,5.35s2.4,5.35,5.35,5.35,5.11-2.18,5.33-4.93l9.38-.7.06.68h0s.07.84.07.84l.68-.06-.06-.71.69-.06.06.71.68-.06-.06-.71.64-.06.06.73.68-.06-.06-.73.64-.06.07.77Zm-18.86,3.2c-2.28,0-4.13-1.85-4.13-4.13s1.85-4.13,4.13-4.13,4.13,1.85,4.13,4.13-1.85,4.13-4.13,4.13Z"/>
        <text class="cls-2" transform="translate(20.27 59.47) rotate(-5)"><tspan x="0" y="0">0101011010010100110101</tspan><tspan x="2.13" y="6">10101101001010011010</tspan><tspan x="4.26" y="12">010110100101001101</tspan></text>
        <text class="cls-3" transform="translate(22.32 49.26) rotate(-5)"><tspan x="0" y="0">X509</tspan></text>
      </g>
    </g>
  </g>
</svg>