<?xml version="1.0" encoding="UTF-8"?>
<svg id="Layer_2" data-name="Layer 2" xmlns="http://www.w3.org/2000/svg" viewBox="0 0 85 85">
  <defs>
    <style>
      .cls-1 {
        fill: #58529e;
      }

      .cls-2 {
        fill: #fff;
      }
    </style>
  </defs>
  <g id="Layer_1-2" data-name="Layer 1">
    <g>
      <circle class="cls-1" cx="42.5" cy="42.5" r="42.5"/>
      <g>
        <path class="cls-2" d="m41.81,49.61c-12.02-.01-21.73-9.78-21.71-21.83.02-11.92,9.84-21.64,21.84-21.62,11.89.02,21.6,9.8,21.6,21.74,0,11.98-9.74,21.71-21.72,21.7Zm-10.14-19.28c0,.48,0,.82,0,1.16,0,2.39-.01,4.77,0,7.16.02,2.26,1.03,3.27,3.26,3.27,4.58,0,9.16,0,13.74,0,2.22,0,3.27-1.05,3.28-3.27,0-2.42,0-4.84,0-7.25,0-.33.03-.67.05-.96.17-.05.23-.09.29-.09,1.37-.01,2.74.07,4.1-.06.72-.06,1.47-.37,2.09-.76.76-.48.79-1.16.2-1.87-.63-.76-1.26-1.52-1.96-2.22-4.36-4.36-8.7-8.74-13.13-13.03-1.48-1.43-2.06-1.38-3.59,0-2.29,2.06-4.57,4.15-6.73,6.35-2.79,2.83-5.47,5.77-8.17,8.69-.9.97-.77,1.75.39,2.36.56.3,1.25.46,1.89.49,1.39.07,2.78.02,4.27.02Z"/>
        <path class="cls-2" d="m26.4,61.09h3.97c.02.35.04.68.04,1.01,0,2.77.01,5.54.02,8.3,0,.16,0,.32,0,.48.09.96.15,2,1.2,2.41,1.16.45,2.35.3,3.32-.52.32-.28.53-.86.54-1.31.05-3.09.02-6.17.02-9.26,0-.34,0-.69,0-1.1h4.03v15.2h-3.32c-.15-.63-.3-1.3-.48-2.07-.17.2-.27.31-.36.43-1.45,1.9-3.38,2.42-5.6,1.8-2.18-.61-3.25-2.31-3.34-4.4-.16-3.61-.04-7.24-.04-10.97Z"/>
        <path class="cls-2" d="m57.31,76.32h-3.97v-21.99h3.97v21.99Z"/>
        <path class="cls-2" d="m42.88,61.09h3.71c.08.65.16,1.27.26,2.09,1.08-1.72,2.32-2.8,4.46-2.22-.14,1.19-.28,2.35-.43,3.64-.7,0-1.36-.06-2,.01-1.33.15-1.95.9-1.95,2.23,0,3.12,0,6.23,0,9.44h-4.04v-15.19Z"/>
        <path class="cls-2" d="m45.69,39.58h-7.63c-.02-.37-.05-.7-.05-1.04,0-2.13-.02-4.26,0-6.39.02-1.6.9-2.47,2.48-2.5.89-.01,1.78-.01,2.67,0,1.48.02,2.46.86,2.5,2.31.06,2.51.02,5.01.02,7.62Z"/>
      </g>
    </g>
  </g>
</svg>