<?xml version="1.0" encoding="UTF-8"?>
<svg id="Layer_2" data-name="Layer 2" xmlns="http://www.w3.org/2000/svg" viewBox="0 0 85 85">
  <defs>
    <style>
      .cls-1 {
        fill: #f39320;
      }

      .cls-2 {
        fill: #fff;
      }
    </style>
  </defs>
  <g id="Layer_1-2" data-name="Layer 1">
    <g id="f24ef77a-f855-419b-9457-d947c88549be">
      <g id="f8efbe48-a4de-41a3-b446-0ae44af1c986">
        <circle class="cls-1" cx="42.5" cy="42.5" r="42.5"/>
        <path class="cls-2" d="m40.52,70.17c-1.49-.98-1.9-2.99-.92-4.47,0,0,.01-.02.02-.03.95-1.3,1.34-2.91,1.1-4.5-.2-1.3-1.1-2.9-3.2-4.5-.2-.1-.7-.5-1.4-.9-.96-.62-1.86-1.32-2.7-2.1-2.54-2.27-4.37-5.22-5.3-8.5v-.1c-1.36-5.43.46-11.15,4.7-14.8.2-.1.4-.3,0,0,1.75-1.46,3.8-2.52,6-3.1,1.04-.27,2.12-.41,3.2-.4,1.28-.02,2.55.11,3.8.4h.1c1.39.3,2.73.77,4,1.4,4.05,1.99,7.63,4.82,10.5,8.3,1.21,1.33,1.11,3.4-.23,4.6-1.33,1.21-3.4,1.11-4.6-.23-.02-.03-.05-.05-.07-.08-2.24-2.75-5.03-5-8.2-6.6-.87-.4-1.77-.74-2.7-1h-.1c-.71-.21-1.46-.28-2.2-.2-.57.01-1.14.08-1.7.2-1.23.28-2.36.86-3.3,1.7-.06,0-.1.04-.1.1-2.06,1.75-3.11,4.41-2.8,7.1l.2,1.1.3.8c.68,1.77,1.78,3.35,3.2,4.6,1.16.96,2.4,1.83,3.7,2.6,6.8,5.1,7.4,12.1,3.7,17.8-1.29,1.37-3.35,1.7-5,.8Zm12.1-5.4c.2-9.1-3.4-16-11.7-20.5-1.57-.86-2.16-2.83-1.3-4.4.86-1.57,2.83-2.16,4.4-1.3h0c10.6,5.7,15.4,14.9,15.2,26.4.01,1.76-1.4,3.19-3.16,3.2-.05,0-.09,0-.14,0-1.84-.06-3.3-1.56-3.3-3.4Zm-25.5-1.77c-4.76-3.38-8.27-8.23-10-13.8-.52-1.74.46-3.58,2.2-4.1,1.74-.52,3.58.46,4.1,2.2,1.28,4.2,3.92,7.86,7.5,10.4,1.48,1.06,1.83,3.11.8,4.6-1.12,1.39-3.12,1.7-4.6.7Zm35.1-11c-.6-1.5-1.3-3-2-4.5-.87-1.6-.28-3.59,1.32-4.46s3.59-.28,4.46,1.32c.04.08.08.16.12.25.8,1.7,1.6,3.4,2.3,5.1.66,1.63-.12,3.48-1.75,4.14-.05.02-.1.04-.15.06-1.71.57-3.57-.26-4.3-1.9Zm-43.3-9.6c-1.79-.19-3.09-1.79-2.9-3.58,0,0,0-.01,0-.02.37-3.86,1.6-7.58,3.6-10.9,1.56-2.71,3.63-5.08,6.1-7,2.98-2.48,6.5-4.24,10.28-5.13,7.82-1.91,16.1-.19,22.5,4.7,1.44,1.1,1.7,3.16.6,4.6-1.1,1.44-3.16,1.7-4.6.6-7.29-5.68-17.55-5.55-24.7.3-1.82,1.5-3.37,3.29-4.6,5.3-1.49,2.5-2.41,5.3-2.7,8.2-.26,1.75-1.82,3.01-3.58,2.9v.03Zm42.9-10.9c-.1-.2-.3-.3-.4-.5-1.27-1.27-1.27-3.33,0-4.6,1.27-1.27,3.33-1.27,4.6,0,.36.34.69.71,1,1.1,1.11,1.4.88,3.43-.52,4.54-.03.02-.05.04-.08.06-1.45,1.08-3.49.8-4.6-.63v.03Z"/>
      </g>
    </g>
  </g>
</svg>