<?xml version="1.0" encoding="UTF-8"?>
<svg id="Layer_2" data-name="Layer 2" xmlns="http://www.w3.org/2000/svg" xmlns:xlink="http://www.w3.org/1999/xlink" viewBox="0 0 85.74 85.3">
  <defs>
    <style>
      .cls-1 {
        letter-spacing: -.03em;
      }

      .cls-2, .cls-3 {
        fill: #fff;
      }

      .cls-4 {
        fill: #a45ea5;
      }

      .cls-3 {
        font-family: Tahoma, Tahoma;
        font-size: 8px;
      }

      .cls-5 {
        clip-path: url(#clippath);
      }

      .cls-6 {
        clip-rule: evenodd;
        fill: none;
      }

      .cls-7 {
        letter-spacing: 0em;
      }
    </style>
    <clipPath id="clippath">
      <polygon class="cls-6" points="0 1.4 71.23 1.4 71.23 72.69 0 72.69 0 1.4 0 1.4"/>
    </clipPath>
  </defs>
  <g id="Layer_1-2" data-name="Layer 1">
    <g>
      <circle class="cls-4" cx="43.09" cy="42.65" r="42.65"/>
      <g class="cls-5">
        <g>
          <path class="cls-2" d="m37.45,17.48c1.28.04,2.57.08,3.85.12.2,0,.39.05.58.09.35.08.43.17.46.52.02.24.04.47.04.71-.01,1.22.09,2.43.28,3.63.08.54.05,1.06-.2,1.56-.25.49-.31,1.04-.34,1.58-.05.83.09,1.64.45,2.39.72,1.49,1.94,2.3,3.56,2.51.62.08,1.22.04,1.82-.12.46-.12.9-.31,1.28-.6,1.28-.97,1.97-2.26,2.08-3.86.05-.7-.12-1.36-.46-1.97-.21-.37-.44-.73-.71-1.05-.53-.61-.84-1.31-.97-2.1-.1-.64-.2-1.29-.28-1.93-.08-.63.11-.81.75-.74.91.1,1.83.2,2.71.45.31.09.61.21.91.35.28.13.48.35.54.66.15.72.34,1.44.43,2.18.22,1.64.42,3.29.58,4.94.14,1.42.23,2.84.32,4.26.11,1.65.19,3.29.27,4.94.02.48.02.97,0,1.45-.05.72-.3,1.39-.72,1.98-.41.58-.83,1.16-1.31,1.68-1.21,1.31-2.45,2.61-3.71,3.88-3.52,3.56-7.06,7.12-10.6,10.66-2.26,2.26-4.54,4.49-6.82,6.72-1.03,1.01-2.11,1.97-3.16,2.96-.15.14-.3.19-.5.19-.74,0-1.48-.01-2.22,0-.21,0-.37-.06-.53-.2-1.79-1.54-3.49-3.18-5.17-4.85-1.45-1.43-2.9-2.86-4.33-4.31-2.67-2.72-5.32-5.46-7.98-8.2-.18-.18-.35-.38-.52-.57-.34-.38-.55-.83-.6-1.33-.04-.47-.03-.95-.03-1.42,0-.42.15-.8.4-1.13.36-.47.72-.95,1.13-1.37,2.58-2.65,5.15-5.31,7.77-7.91,4.75-4.74,9.54-9.44,14.31-14.16.73-.72,1.49-1.42,2.22-2.13.2-.19.42-.3.71-.32.58-.02,1.16-.08,1.75-.09.64-.02,1.28,0,1.93,0,0-.02,0-.04,0-.06Z"/>
          <path class="cls-2" d="m64.14,20.44c-.04,1.32-.1,2.63-.32,3.93-.47,2.74-1.22,5.39-2.41,7.91-.31.66-.65,1.31-.99,1.96-.11.22-.27.42-.39.63-.33.55-1.24.75-1.82.4-.4-.24-.7-.58-.92-.98-.09-.17-.09-.34-.02-.51.2-.55.39-1.1.61-1.64.74-1.77,1.41-3.56,1.94-5.41.26-.91.51-1.83.65-2.77.07-.46.13-.92.14-1.38.03-1.48,0-2.96.04-4.45.03-1.53-.58-2.8-1.53-3.94-1.1-1.33-2.53-2.11-4.25-2.26-1.21-.1-2.41-.01-3.54.51-.07.03-.14.06-.21.1-1.36.78-2.43,1.85-3.19,3.23-.34.61-.48,1.29-.54,1.99-.08,1.02,0,2.03.15,3.04.17,1.23.38,2.46.54,3.69.07.58.08,1.16.08,1.74,0,.23-.06.47-.12.7-.11.35-.36.56-.72.64-.4.09-.81.08-1.21-.01-.34-.08-.59-.29-.73-.6-.15-.35-.31-.71-.39-1.08-.47-2.06-.85-4.14-.94-6.26-.06-1.41.04-2.8.43-4.17.54-1.92,1.66-3.46,3.21-4.69.95-.76,1.96-1.4,3.13-1.76.77-.24,1.56-.37,2.36-.39,1.07-.03,2.13-.02,3.2.12.42.05.83.17,1.23.33,2.84,1.18,4.75,3.26,5.88,6.1.37.92.56,1.87.6,2.86.03.82.06,1.64.08,2.46Z"/>
        </g>
      </g>
      <g>
        <rect class="cls-4" x="32.83" y="61.52" width="38.43" height="11.81"/>
        <g>
          <polygon class="cls-2" points="36.09 62.72 33.9 62.72 37.04 67.17 39.23 67.17 36.09 62.72"/>
          <polygon class="cls-2" points="42.37 62.72 40.18 62.72 43.32 67.17 45.51 67.17 42.37 62.72"/>
          <polygon class="cls-2" points="43.32 67.17 45.51 67.17 42.37 71.63 40.18 71.63 43.32 67.17"/>
          <polygon class="cls-2" points="40.06 67.17 42.24 67.17 39.1 71.63 36.91 71.63 40.06 67.17"/>
          <text class="cls-3" transform="translate(47.52 69.88)"><tspan class="cls-1" x="0" y="0">K</tspan><tspan x="4.48" y="0">est</tspan><tspan class="cls-7" x="14.94" y="0">r</tspan><tspan x="17.78" y="0">el</tspan></text>
        </g>
      </g>
    </g>
  </g>
</svg>