<?xml version="1.0" encoding="UTF-8"?>
<svg id="Layer_2" data-name="Layer 2" xmlns="http://www.w3.org/2000/svg" viewBox="0 0 85 85">
  <defs>
    <style>
      .cls-1 {
        fill: #f39320;
      }

      .cls-2 {
        fill: #fff;
        fill-rule: evenodd;
      }
    </style>
  </defs>
  <g id="Layer_1-2" data-name="Layer 1">
    <g id="aed60d0c-44ea-4575-bd60-277ef2f434a0">
      <g id="e71ef8c0-bc20-4481-a66f-830573d41ff7">
        <circle class="cls-1" cx="42.5" cy="42.5" r="42.5"/>
        <path class="cls-2" d="m16,59.74V25.53c.03-5.16,4.2-9.33,9.36-9.36h31l-15.81,15.83c-.37.35-.61.81-.7,1.31l-2,11.37c-.24,1.31.63,2.58,1.94,2.82.29.05.58.05.87,0l11.38-2c.5-.09.95-.34,1.3-.7l15.5-15.5v30.34c-.03,5.16-4.21,9.34-9.37,9.36H25.26c-5.11-.02-9.24-4.15-9.26-9.26Zm27.37-17.74l1-5.63,4.63,4.63-5.63,1Zm9.63-3.89l-5.8-5.84,19.11-19.12c.13-.17.38-.2.55-.06.02.02.04.04.06.06l5.23,5.23c.17.13.2.38.06.55-.02.02-.04.04-.06.06l-19.15,19.12Z"/>
      </g>
    </g>
  </g>
</svg>