<?xml version="1.0" encoding="UTF-8"?>
<svg id="Layer_2" data-name="Layer 2" xmlns="http://www.w3.org/2000/svg" xmlns:xlink="http://www.w3.org/1999/xlink" viewBox="0 0 84.91 84.91">
  <defs>
    <style>
      .cls-1 {
        fill: #58529e;
      }

      .cls-2 {
        fill: #fff;
      }

      .cls-3 {
        clip-path: url(#clippath);
      }

      .cls-4 {
        clip-rule: evenodd;
        fill: none;
      }

      .cls-5 {
        fill: #a1d9df;
      }
    </style>
    <clipPath id="clippath">
      <polygon class="cls-4" points="6.43 2.08 80.7 2.08 80.7 76.35 6.43 76.35 6.43 2.08 6.43 2.08"/>
    </clipPath>
  </defs>
  <g id="Layer_1-2" data-name="Layer 1">
    <g>
      <circle class="cls-1" cx="42.45" cy="42.45" r="42.45"/>
      <g class="cls-3">
        <path class="cls-1" d="m43.61,69.51c-9.55,0-19.09,0-28.64,0-.92,0-1.72-.29-2.44-.83-.84-.63-1.33-1.44-1.55-2.42-.03-.15-.01-.31-.01-.46,0-11.71,0-23.42,0-35.13,0-.24.08-.38.29-.53,2.29-1.63,4.58-3.27,6.86-4.9.51-.36,1.01-.74,1.53-1.09.19-.13.26-.26.26-.48,0-1.95,0-3.91,0-5.86,0-.92.36-1.71.96-2.43.83-1,1.96-1.39,3.26-1.4,2.98-.01,5.96-.01,8.93,0,.51,0,.92-.09,1.31-.4.59-.47,1.19-.95,1.83-1.35.64-.4,1.19-.92,1.82-1.33.43-.28.81-.64,1.25-.89.72-.42,1.33-.96,2.05-1.37.44-.26.92-.38,1.41-.45.35-.05.71-.11,1.05-.11.29,0,.57.14.86.21.8.19,1.41.68,2.05,1.13.91.64,1.84,1.25,2.74,1.91.98.72,1.99,1.4,2.98,2.1.23.16.5.26.73.45.15.12.47.08.72.08,3.11,0,6.22,0,9.33,0,.99,0,1.85.33,2.6.97,1,.86,1.44,1.9,1.42,3.16-.02,1.65.02,3.31-.02,4.97-.01.52.16.87.58,1.12.91.56,1.7,1.24,2.58,1.84,1.71,1.16,3.41,2.34,5.1,3.53.29.2.62.35.83.65.08.12.12.23.12.36,0,11.69,0,23.38,0,35.07,0,1.2-.52,2.21-1.53,2.98-.76.58-1.62.87-2.61.86-9.55,0-19.09,0-28.64,0Zm-.29-53.54h0c-6.28,0-12.57,0-18.85,0-.42,0-.84.08-1.22.25-.86.38-1.24,1.08-1.25,1.94,0,6.02,0,12.05-.01,18.07,0,.24.09.37.28.5,1.09.71,2.1,1.52,3.14,2.29,1.22.9,2.43,1.81,3.64,2.72,1.67,1.25,3.34,2.49,5.01,3.74,1.53,1.14,3.06,2.29,4.6,3.43,1.19.89,2.38,1.78,3.58,2.66.43.32.95.49,1.49.47.66-.03,1.26-.29,1.77-.71.39-.32.77-.64,1.19-.94.44-.32.92-.58,1.3-.95.28-.27.62-.47.92-.71.45-.37.91-.72,1.38-1.06.37-.27.77-.51,1.11-.79.42-.35.87-.65,1.29-.99.67-.53,1.38-1.01,2.03-1.56.39-.33.82-.61,1.22-.93.69-.54,1.43-1.01,2.11-1.57.31-.26.69-.46,1-.72.42-.36.89-.65,1.3-1.01.37-.33.85-.56,1.21-.91.14-.14.34-.25.51-.36.54-.36,1.04-.78,1.56-1.16.3-.22.53-.51.86-.7.61-.37.6-.38.6-1.1,0-5.58,0-11.16,0-16.75,0-.54.04-1.08-.14-1.6-.13-.36-.29-.7-.61-.97-.65-.54-1.46-.59-2.24-.59-6.26-.02-12.52-.01-18.78-.01Zm28.86,51.56c-.21-.25-.46-.31-.66-.45-1.42-1.03-2.84-2.05-4.26-3.08-1.09-.79-2.17-1.6-3.26-2.38-1.16-.83-2.31-1.66-3.46-2.49-.97-.7-1.94-1.41-2.9-2.13-1.23-.93-2.5-1.83-3.75-2.75-1.19-.87-2.4-1.72-3.58-2.6-.46-.34-.46-.35-.92,0-.86.66-1.71,1.34-2.59,1.97-.73.53-1.61.78-2.51.9-1.53.2-2.87-.25-4.07-1.12-.81-.59-1.6-1.2-2.39-1.81-.26-.21-.47-.18-.72,0-1.41,1.05-2.83,2.11-4.25,3.15-1.99,1.47-3.99,2.93-5.98,4.4-2.03,1.49-4.05,2.99-6.09,4.47-1.71,1.23-3.37,2.52-5.11,3.71-.07.05-.15.09-.09.21h56.58Zm2.12-34.64c-.1.05-.16.07-.19.1-1.74,1.41-3.57,2.72-5.35,4.08-1.57,1.2-3.16,2.37-4.73,3.57-2.02,1.54-4.05,3.06-6.07,4.6-1.11.85-2.23,1.7-3.36,2.52-.89.64-1.75,1.31-2.63,1.97-.27.21-.28.23,0,.44.82.6,1.65,1.2,2.47,1.8,1.29.94,2.57,1.89,3.85,2.83.95.7,1.91,1.38,2.86,2.08.76.56,1.52,1.14,2.29,1.69.5.36,1.01.72,1.51,1.08.98.7,1.94,1.43,2.91,2.13,1.34.97,2.66,1.96,4.03,2.91.52.36,1.05.71,1.53,1.13.16.14.31.31.54.38.18.05.25.01.26-.15.02-.27.06-.53.06-.8,0-10.65,0-21.3,0-31.95,0-.11,0-.22,0-.39Zm-61.22.22c0,.13,0,.21,0,.29,0,10.7,0,21.4,0,32.1,0,.31.05.63.28.91,7.44-5.47,14.87-10.94,22.31-16.42-7.54-5.61-15.06-11.21-22.6-16.89Zm24.42-19.12h11.87c0-.11-.05-.14-.1-.17-.45-.22-.86-.52-1.26-.81-1.04-.74-2.1-1.45-3.1-2.22-.95-.73-2.07-.73-2.89-.08-.15.12-.28.29-.47.37-.52.22-.88.64-1.34.93-.7.44-1.33.96-2.02,1.41-.22.14-.52.24-.69.57Zm29.73,12.46v8.47c.26-.11.43-.29.62-.44,1.65-1.24,3.29-2.48,4.94-3.72.18-.14.3-.24.03-.42-1.42-.93-2.79-1.91-4.17-2.89-.46-.33-.92-.65-1.43-1.01Zm-47.34.21c-.1-.04-.15,0-.19.05-.48.43-1.01.78-1.54,1.15-1.26.89-2.48,1.82-3.77,2.67-.12.08-.2.13-.02.27,1.74,1.29,3.5,2.56,5.19,3.92.09.08.17.18.33.19v-8.24Z"/>
        <path class="cls-2" d="m43.32,15.97c6.26,0,12.52,0,18.78.01.78,0,1.59.05,2.24.59.32.27.49.61.61.97.18.52.14,1.06.14,1.6,0,5.58,0,11.16,0,16.75,0,.71.01.73-.6,1.1-.33.2-.56.48-.86.7-.53.38-1.03.79-1.56,1.16-.17.12-.37.23-.51.36-.37.35-.84.58-1.21.91-.41.36-.88.66-1.3,1.01-.31.27-.69.46-1,.72-.67.56-1.42,1.03-2.11,1.57-.4.32-.83.6-1.22.93-.65.55-1.36,1.03-2.03,1.56-.42.33-.87.64-1.29.99-.34.28-.74.53-1.11.79-.47.34-.93.69-1.38,1.06-.3.25-.64.44-.92.71-.38.37-.87.63-1.3.95-.41.3-.79.62-1.19.94-.51.41-1.11.68-1.77.71-.54.03-1.06-.15-1.49-.47-1.2-.88-2.39-1.77-3.58-2.66-1.53-1.14-3.07-2.29-4.6-3.43-1.67-1.25-3.34-2.49-5.01-3.74-1.21-.91-2.42-1.82-3.64-2.72-1.04-.77-2.05-1.57-3.14-2.29-.2-.13-.28-.27-.28-.5,0-6.02,0-12.05.01-18.07,0-.87.39-1.56,1.25-1.94.37-.17.8-.25,1.22-.25,6.28,0,12.57,0,18.85,0h0Zm-9.37,18.76c.03.3.03.61.07.91.07.62.15,1.25.37,1.83.69,1.79,1.84,3.21,3.77,3.99.71.29,1.45.49,2.21.62.66.11,1.33.18,2,.2.03,0,.06.01.09.02.8.02,1.6,0,2.4-.1.79-.1,1.58-.17,2.33-.43,1.05-.36,1.08-.4,1.1-1.46,0-.58-.33-.86-.92-.69-1.53.44-3.09.58-4.68.54-.86-.02-1.69-.19-2.5-.39-.33-.08-.64-.27-.96-.39-1.04-.38-1.72-1.1-2.2-1.99-.39-.73-.63-1.52-.67-2.35.04-.03.03-.05,0-.07,0-.65,0-1.31,0-1.96.06-.06.05-.13.03-.2,0-.76.21-1.49.37-2.22.14-.65.42-1.27.59-1.91.13-.49.53-.92.86-1.34,1.43-1.83,3.46-2.66,5.77-2.94,1.08-.13,2.16,0,3.22.23,1.88.42,3.18,1.45,3.66,3.27.21.79.25,1.58.21,2.4-.06,1.04-.26,2.04-.62,3.02-.23.62-.56,1.19-1.16,1.57-.5.32-1.06.41-1.59.09-.4-.24-.46-.68-.38-1.08.19-1,.37-1.99.6-2.98.22-.95.38-1.9.58-2.85.19-.92.17-1.2-1.05-1.16-.75.02-.92.13-1.09.83,0,.01-.03.02-.06.03-.59-.47-1.2-.87-2.01-.96-1.15-.13-2.2.08-3.14.69-.82.53-1.39,1.27-1.79,2.13-.42.9-.69,1.84-.79,2.83-.09.85-.13,1.69.07,2.53.28,1.22,1.3,2.11,2.5,2.22,1.54.14,2.84-.36,3.98-1.3.18-.15.28-.16.4.04.46.74,1.15,1.15,2.06,1.24,1.83.18,3.28-.44,4.34-1.85.57-.75.9-1.6,1.16-2.49.22-.76.37-1.52.42-2.29.04-.59.01-1.19.01-1.79,0,0,.02-.02.02-.02,0-.02-.02-.03-.02-.05-.02-.13-.05-.26-.07-.39-.12-.77-.29-1.53-.63-2.25-.7-1.48-1.9-2.43-3.47-3.02-.37-.14-.72-.32-1.14-.38-.37-.06-.75-.2-1.1-.21-.36-.01-.72-.09-1.09-.07-.08-.14-.17-.14-.28-.02l-.91.02c-.12-.2-.23-.02-.35.01-.04,0-.08,0-.12,0-.05-.05-.09-.05-.14,0-.94,0-1.84.18-2.74.4-.72.18-1.41.45-2.07.78-.91.46-1.75,1.01-2.44,1.74-.2.21-.35.47-.54.68-.47.53-.8,1.13-1.13,1.73-.39.7-.61,1.46-.82,2.23-.18.66-.28,1.32-.41,1.98-.08.42-.08.88-.1,1.32,0,0-.02.01-.02.02,0,.02,0,.03.02.05,0,.06,0,.12-.01.17,0,.03,0,.06-.01.08,0,.05,0,.1,0,.15,0,.03,0,.06,0,.09,0,.05,0,.1,0,.15,0,.03,0,.06,0,.09,0,.05,0,.1,0,.16,0,0-.02.02-.01.03,0,.02.01.04.02.06,0,.12.01.24.02.36,0,0-.02.02-.02.02,0,.02.02.03.03.05Z"/>
        <path class="cls-2" d="m72.17,67.52H15.59c-.06-.12.03-.17.09-.21,1.75-1.18,3.4-2.48,5.11-3.71,2.04-1.47,4.06-2.98,6.09-4.47,1.99-1.47,3.99-2.93,5.98-4.4,1.42-1.05,2.83-2.1,4.25-3.15.25-.19.46-.21.72,0,.79.62,1.58,1.23,2.39,1.81,1.2.87,2.55,1.32,4.07,1.12.9-.12,1.77-.37,2.51-.9.88-.64,1.73-1.31,2.59-1.97.46-.36.46-.35.92,0,1.18.88,2.39,1.73,3.58,2.6,1.25.92,2.51,1.82,3.75,2.75.95.72,1.92,1.43,2.9,2.13,1.15.83,2.3,1.67,3.46,2.49,1.1.78,2.17,1.59,3.26,2.38,1.42,1.03,2.84,2.05,4.26,3.08.19.14.45.21.66.45Z"/>
        <path class="cls-2" d="m74.29,32.88c0,.16,0,.28,0,.39,0,10.65,0,21.3,0,31.95,0,.27-.04.53-.06.8-.01.16-.08.2-.26.15-.23-.07-.38-.24-.54-.38-.47-.42-1.01-.77-1.53-1.13-1.36-.94-2.69-1.94-4.03-2.91-.97-.7-1.93-1.43-2.91-2.13-.5-.36-1.01-.72-1.51-1.08-.77-.55-1.53-1.13-2.29-1.69-.95-.7-1.91-1.38-2.86-2.08-1.29-.94-2.57-1.89-3.85-2.83-.82-.6-1.65-1.2-2.47-1.8-.29-.21-.28-.24,0-.44.88-.66,1.74-1.33,2.63-1.97,1.14-.82,2.25-1.67,3.36-2.52,2.02-1.54,4.05-3.06,6.07-4.6,1.57-1.2,3.17-2.37,4.73-3.57,1.78-1.36,3.61-2.67,5.35-4.08.04-.03.09-.05.19-.1Z"/>
        <path class="cls-2" d="m13.07,33.1c7.54,5.68,15.05,11.27,22.6,16.89-7.44,5.48-14.87,10.94-22.31,16.42-.23-.28-.28-.6-.28-.91,0-10.7,0-21.4,0-32.1,0-.08,0-.16,0-.29Z"/>
        <path class="cls-2" d="m37.49,13.99c.17-.33.47-.43.69-.57.69-.45,1.32-.97,2.02-1.41.46-.29.82-.71,1.34-.93.19-.08.31-.25.47-.37.83-.65,1.94-.65,2.89.08,1.01.77,2.07,1.48,3.1,2.22.41.29.81.58,1.26.81.05.02.09.06.1.17h-11.87Z"/>
        <path class="cls-2" d="m67.21,26.45c.5.36.96.68,1.43,1.01,1.38.98,2.75,1.96,4.17,2.89.26.17.15.28-.03.42-1.65,1.24-3.29,2.48-4.94,3.72-.19.14-.36.33-.62.44v-8.47Z"/>
        <path class="cls-2" d="m19.88,26.65v8.24c-.16,0-.24-.11-.33-.19-1.69-1.35-3.45-2.63-5.19-3.92-.18-.14-.1-.19.02-.27,1.29-.84,2.51-1.78,3.77-2.67.52-.37,1.06-.72,1.54-1.15.05-.04.1-.09.19-.05Z"/>
        <path class="cls-1" d="m44.34,22.37s.08,0,.12,0c.12.03.23.03.35-.01.3,0,.6-.01.91-.02.09.07.18.05.28.02.36-.02.72.06,1.09.07.35.01.73.16,1.1.21.41.06.76.24,1.14.38,1.57.59,2.77,1.54,3.47,3.02.34.72.5,1.48.63,2.25.02.13.05.26.07.39,0,.02,0,.05,0,.07,0,.6.03,1.19-.01,1.79-.05.77-.2,1.54-.42,2.29-.26.89-.59,1.74-1.16,2.49-1.06,1.41-2.51,2.03-4.34,1.85-.91-.09-1.6-.5-2.06-1.24-.12-.2-.22-.19-.4-.04-1.13.94-2.44,1.44-3.98,1.3-1.2-.11-2.21-1-2.5-2.22-.19-.84-.16-1.68-.07-2.53.1-.98.38-1.93.79-2.83.39-.85.96-1.59,1.79-2.13.95-.61,1.99-.83,3.14-.69.81.09,1.43.49,2.01.96.03-.02.06-.02.06-.03.16-.7.33-.81,1.09-.83,1.22-.03,1.24.24,1.05,1.16-.2.95-.35,1.9-.58,2.85-.23.99-.41,1.99-.6,2.98-.08.4-.02.83.38,1.08.53.32,1.09.23,1.59-.09.6-.38.93-.95,1.16-1.57.36-.98.56-1.98.62-3.02.05-.82,0-1.61-.21-2.4-.48-1.82-1.78-2.85-3.66-3.27-1.05-.24-2.14-.37-3.22-.23-2.31.28-4.34,1.12-5.77,2.94-.33.42-.73.86-.86,1.34-.18.64-.45,1.25-.59,1.91-.16.74-.36,1.46-.37,2.22-.05.06-.06.13-.03.2,0,.65,0,1.31,0,1.96,0,.02,0,.05,0,.07.04.83.28,1.62.67,2.35.48.89,1.15,1.61,2.2,1.99.32.12.63.31.96.39.82.2,1.64.37,2.5.39,1.59.04,3.15-.1,4.68-.54.59-.17.93.11.92.69-.02,1.06-.05,1.1-1.1,1.46-.75.26-1.55.32-2.33.43-.8.1-1.6.11-2.4.1-.03,0-.06-.01-.09-.02-.67-.02-1.34-.09-2-.2-.76-.13-1.49-.33-2.21-.62-1.93-.78-3.08-2.2-3.77-3.99-.22-.58-.3-1.2-.37-1.83-.03-.3-.03-.61-.07-.91,0-.02,0-.05,0-.07,0-.12-.01-.24-.02-.36,0-.03,0-.05,0-.08,0-.05,0-.1,0-.16.04-.03.04-.06,0-.09,0-.05,0-.1,0-.15.04-.03.04-.06,0-.09,0-.05,0-.1,0-.15,0-.03,0-.06.01-.08,0-.06,0-.12.01-.17,0-.02,0-.05,0-.07.02-.44.02-.89.1-1.32.13-.66.23-1.33.41-1.98.21-.77.43-1.53.82-2.23.33-.6.66-1.21,1.13-1.73.19-.22.34-.47.54-.68.69-.73,1.54-1.28,2.44-1.74.66-.33,1.34-.61,2.07-.78.9-.22,1.81-.4,2.74-.4.05,0,.09,0,.14,0Zm-3.5,10.98c-.01.47.08.92.31,1.34.14.26.62.5.86.45.42-.07.83-.16,1.21-.39.61-.36,1.19-.75,1.67-1.26.12-.12.19-.27.22-.44.15-.85.31-1.71.46-2.56.03-.15.05-.31-.06-.45-.29-.38-.6-.74-1.01-1.01-.25-.16-.52-.24-.83-.25-.81,0-1.32.46-1.72,1.03-.74,1.06-1.01,2.27-1.13,3.52Z"/>
        <path class="cls-5" d="m44.81,22.35c-.11.04-.23.04-.35.01.11-.03.22-.21.35-.01Z"/>
        <path class="cls-5" d="m45.99,22.35c-.1.03-.19.05-.28-.02.1-.12.2-.12.28.02Z"/>
        <path class="cls-5" d="m36.34,33c-.03-.07-.02-.14.03-.2.02.07.03.14-.03.2Z"/>
        <path class="cls-5" d="m44.34,22.37s-.09,0-.14,0c.05-.05.09-.05.14,0Z"/>
        <path class="cls-5" d="m53.48,28.74s0-.05,0-.07c0,.02.02.03.02.05,0,0-.01.01-.02.02Z"/>
        <path class="cls-5" d="m33.95,33.23s0,.05,0,.07c0-.02-.01-.03-.02-.05,0,0,.01-.01.02-.02Z"/>
        <path class="cls-5" d="m33.93,33.48s0,.06-.01.08c0-.03,0-.06.01-.08Z"/>
        <path class="cls-5" d="m33.91,33.72s.03.06,0,.09c0-.03,0-.06,0-.09Z"/>
        <path class="cls-5" d="m33.91,33.96s.04.06,0,.09c0-.03,0-.06,0-.09Z"/>
        <path class="cls-5" d="m33.91,34.21s0,.05,0,.08c0-.02-.02-.04-.02-.06,0,0,0-.02.01-.03Z"/>
        <path class="cls-5" d="m33.94,34.65s0,.05,0,.07c0-.02-.02-.03-.03-.05,0,0,.01-.01.02-.02Z"/>
        <path class="cls-5" d="m36.35,35.03s0-.05,0-.07c.04.02.04.05,0,.07Z"/>
        <path class="cls-5" d="m42.36,42.27s.06.01.09.02c-.03,0-.06-.01-.09-.02Z"/>
        <path class="cls-2" d="m40.84,33.34c.11-1.25.39-2.45,1.13-3.52.39-.57.9-1.04,1.72-1.03.31,0,.58.08.83.25.41.27.72.63,1.01,1.01.11.14.08.29.06.45-.15.85-.31,1.71-.46,2.56-.03.17-.1.31-.22.44-.49.5-1.06.9-1.67,1.26-.39.23-.79.32-1.21.39-.25.04-.72-.2-.86-.45-.23-.42-.32-.86-.31-1.34Z"/>
      </g>
    </g>
  </g>
</svg>