<?xml version="1.0" encoding="UTF-8"?>
<svg id="Layer_2" data-name="Layer 2" xmlns="http://www.w3.org/2000/svg" viewBox="0 0 85 85">
  <defs>
    <style>
      .cls-1 {
        fill: #f39320;
      }

      .cls-2 {
        fill: #fff;
        fill-rule: evenodd;
      }
    </style>
  </defs>
  <g id="Layer_1-2" data-name="Layer 1">
    <g id="afda6446-c22d-4112-8cd7-140d2746282e">
      <g id="a625a590-9b2f-45d5-8d6f-dd04d8f3955d">
        <circle class="cls-1" cx="42.5" cy="42.5" r="42.5"/>
        <path class="cls-2" d="m36.59,31.23c-.02-3.24,2.59-5.87,5.83-5.89.02,0,.05,0,.07,0,3.25.02,5.87,2.64,5.89,5.89.02,3.24-2.58,5.88-5.82,5.9-.02,0-.05,0-.07,0-3.25-.01-5.89-2.65-5.9-5.9Zm21.84-3.09c-1.55-7.34-7.15-13.14-15.94-13.14s-14.3,5.8-16,13.14c-3.09,14.59,7.64,30.24,16,41.74,8.31-11.5,19.13-27.25,15.94-41.74Z"/>
      </g>
    </g>
  </g>
</svg>