<?xml version="1.0" encoding="UTF-8"?>
<svg id="Layer_2" data-name="Layer 2" xmlns="http://www.w3.org/2000/svg" viewBox="0 0 85 85">
  <defs>
    <style>
      .cls-1 {
        fill: #f39320;
      }

      .cls-2 {
        fill: #fff;
      }
    </style>
  </defs>
  <g id="Layer_1-2" data-name="Layer 1">
    <g id="f69ab9b1-48bc-4302-96b2-7e19d27b542d">
      <g id="b985cc63-55f0-4f3e-947c-7e9922e85b8a">
        <circle class="cls-1" cx="42.5" cy="42.5" r="42.5"/>
        <path class="cls-2" d="m52.35,42.27c0,4.63,3.74,8.38,8.37,8.39,4.63,0,8.38-3.74,8.39-8.37,0-4.63-3.74-8.38-8.37-8.39,0,0,0,0,0,0-4.62,0-8.37,3.75-8.38,8.37Zm-2.42,10.8c-2.03-2.02-3.44-4.57-4.09-7.35h-6.69c-1.91,8.22-10.11,13.33-18.33,11.43-8.22-1.91-13.33-10.11-11.43-18.33s10.11-13.33,18.33-11.43c5.68,1.32,10.11,5.75,11.43,11.43h6.69c1.9-8.22,10.1-13.35,18.33-11.45s13.35,10.1,11.45,18.33c-1.9,8.22-10.1,13.35-18.33,11.45-2.79-.64-5.34-2.06-7.36-4.08Z"/>
      </g>
    </g>
  </g>
</svg>