<?xml version="1.0" encoding="UTF-8"?>
<svg id="Layer_2" data-name="Layer 2" xmlns="http://www.w3.org/2000/svg" viewBox="0 0 84.91 84.91">
  <defs>
    <style>
      .cls-1 {
        fill: #58529e;
      }

      .cls-2 {
        fill: #fff;
      }
    </style>
  </defs>
  <g id="Layer_1-2" data-name="Layer 1">
    <circle class="cls-1" cx="42.45" cy="42.45" r="42.45"/>
    <g>
      <path class="cls-2" d="m39.07,67.54c-8.35,0-16.69.01-25.04,0-3.72,0-6.18-2.52-6.19-6.27,0-10.9,0-21.81,0-32.71,0-3.77,2.5-6.26,6.29-6.26,16.72,0,33.44,0,50.16,0,3.38,0,5.94,2.52,5.99,5.97.05,3.97.02,7.95.02,11.92,0,7.07,0,14.14-.01,21.21,0,3.1-1.94,5.52-4.83,6.04-.81.14-1.65.1-2.48.1-7.97,0-15.94,0-23.91,0h0Zm-16.68-20.86c-1.88.87-3.98,1.73-5.97,2.79-.84.45-1.58,1.23-2.16,2-1.27,1.7-1.86,3.7-2.06,5.8-.11,1.17-.06,1.22,1.09,1.62,3.38,1.18,6.91,1.5,10.45,1.7,4.4.25,8.8.19,13.16-.45,2.07-.3,4.09-.92,6.12-1.41.53-.13.79-.48.71-1.05-.1-.7-.15-1.41-.3-2.1-.74-3.21-2.35-5.75-5.57-7.01-1.3-.51-2.57-1.06-3.84-1.63-.52-.23-.83-.2-1.23.29-2.05,2.55-5.16,3.22-7.76,1.64-.89-.54-1.63-1.34-2.64-2.2Zm-2.16-7.22l.17.07c-.06,1.13.26,2.19.91,3.07.69.94,1.18,1.96,1.7,2.99,1.17,2.31,3.5,3.61,5.72,3.22,2.04-.36,3.43-1.65,4.3-3.47.43-.89.88-1.75,1.45-2.56.44-.64.8-1.43.92-2.19.13-.78.13-1.71-.18-2.4-.25-.56-.38-1.07-.4-1.65-.01-.5.03-1-.03-1.49-.28-2.37-1.49-5.02-4.52-5.56-1.08-.19-2.21-.32-3.3-.26-3.09.19-5.08,1.93-5.71,4.97-.19.94-.13,1.93-.2,2.89-.02.23-.05.47-.13.68-.22.57-.47,1.13-.71,1.69Zm34.17,6.91c2.86,0,5.71,0,8.57,0,.26,0,.52,0,.77-.05.56-.12.87-.49.84-1.06-.03-.53-.36-.87-.9-.93-.35-.04-.71-.04-1.06-.04-5.62,0-11.24,0-16.86,0-.21,0-.43,0-.63.04-.54.1-.91.49-.82.98.07.36.44.71.76.97.16.13.5.08.76.08,2.86,0,5.71,0,8.57,0Zm.05-9.81h0c-2.98,0-5.95,0-8.93,0-.79,0-1.27.4-1.26,1.02.01.63.49,1.02,1.27,1.02,5.93,0,11.85,0,17.78,0,.86,0,1.3-.39,1.28-1.07-.02-.65-.44-.97-1.29-.97-2.95,0-5.9,0-8.86,0Zm-.02-5.73h0c1.35,0,2.69,0,4.04,0,1.68,0,3.35,0,5.03,0,.68,0,1.07-.37,1.1-.94.03-.6-.38-1.04-1.05-1.1-.19-.02-.38,0-.57,0-3.64,0-7.27,0-10.91,0-2.15,0-4.3-.02-6.45.02-.4,0-.87.22-1.16.49-.18.17-.21.75-.06.95.22.29.67.55,1.02.56,3,.04,6,.02,9,.02Z"/>
      <path class="cls-2" d="m13.82,20.71c.63-2.19,2.83-3.92,5.12-3.96,3.38-.06,6.76-.03,10.14-.03,13,0,26.01,0,39.01,0,1.01,0,2.05-.07,3.04.12,2.81.53,4.75,2.93,4.76,5.81.01,9.84.01,19.68,0,29.51,0,1.68.09,3.38-.17,5.02-.33,2.14-1.76,3.52-3.83,4.42-.02-.3-.04-.52-.04-.74,0-11.16-.02-22.32,0-33.49,0-1.38-.41-2.57-1.28-3.58-1.72-2-3.85-3.12-6.55-3.12-16.41.02-32.82.03-49.23.04-.31,0-.61,0-.98,0Z"/>
    </g>
  </g>
</svg>