<?xml version="1.0" encoding="UTF-8"?>
<svg id="Layer_2" data-name="Layer 2" xmlns="http://www.w3.org/2000/svg" viewBox="0 0 85 85">
  <defs>
    <style>
      .cls-1 {
        fill: #fff;
      }

      .cls-2 {
        fill: #76927a;
      }
    </style>
  </defs>
  <g id="Layer_1-2" data-name="Layer 1">
    <g>
      <circle class="cls-2" cx="42.5" cy="42.5" r="42.5"/>
      <g>
        <path class="cls-1" d="m13.69,37.73c0,.31.03.62.03.93,0,5.64.01,11.28.01,16.92,0,2.98,0,5.96-.01,8.94,0,.08-.02.16-.02.25,0-9.01,0-18.03,0-27.04Z"/>
        <path class="cls-1" d="m26.52,11.56c0,.1,0,.16,0,.23,0,1.03,0,2.06,0,3.1,0,.16-.05.2-.21.2-2,.01-4,.03-6,.05-.44,0-.89.01-1.33.03-.09,0-.18.05-.26.1-.19.13-.36.28-.55.4-.38.22-.58.56-.62.98-.08.93-.17,1.86-.19,2.8-.14,9.35-.05,18.7-.05,28.04,0,6.98.03,13.97.04,20.95,0,.28-.02.55,0,.83,0,.11.04.23.1.32.37.57.9.99,1.47,1.36.06.04.13.05.2.05.15,0,.3,0,.45,0,15.2,0,30.41,0,45.61,0,.38,0,.68-.09.97-.32.4-.31.77-.64,1.05-1.05.07-.11.12-.25.12-.38,0-5.8,0-11.59,0-17.39.01-8.69.04-17.39.06-26.08,0-1.36,0-2.72-.03-4.09-.02-1.33-.06-2.65-.12-3.97-.02-.44-.1-.88-.17-1.32-.05-.29-.21-.51-.47-.67-.23-.14-.43-.32-.66-.48-.08-.05-.18-.09-.28-.1-2.35-.03-4.7-.05-7.04-.08-.09,0-.18-.01-.27,0-.14.01-.19-.04-.19-.18,0-.83,0-1.66,0-2.48,0-.23,0-.47,0-.7,0-.11.03-.16.16-.16,1.71,0,3.41,0,5.12.01.96.01,1.92.02,2.87.19.88.16,1.65.56,2.35,1.11.66.52,1.15,1.17,1.53,1.91.17.33.32.67.49,1,.12.22.16.46.16.71,0,4.12,0,8.24,0,12.37,0,13.58,0,27.17,0,40.75,0,.25-.07.51-.15.75-.21.6-.5,1.17-.87,1.69-.64.89-1.51,1.51-2.47,2.02-.56.3-1.12.4-1.75.4-15.72-.01-31.44,0-47.16-.01-.13,0-.27,0-.39-.05-.86-.38-1.72-.75-2.39-1.44-.88-.89-1.54-1.92-1.73-3.18-.07-.45-.09-.91-.09-1.36,0-10.01,0-20.02,0-30.02,0-7.31,0-14.62,0-21.92,0-.24.04-.46.14-.68.34-.74.69-1.48,1.22-2.11.92-1.12,2.1-1.82,3.54-1.97,1.06-.1,2.13-.1,3.2-.12,1.4-.02,2.8-.02,4.2-.03.12,0,.24,0,.39,0Z"/>
        <path class="cls-1" d="m28.98,18.94v-8.89c.05,0,.11-.01.16-.01,2.23,0,4.46,0,6.69,0,.16,0,.21-.04.24-.2.11-.74.27-1.47.56-2.17.61-1.48,1.67-2.51,3.1-3.21,1.1-.54,2.24-.65,3.44-.51,1.18.13,2.22.6,3.15,1.32.79.61,1.31,1.43,1.7,2.33.32.72.5,1.47.61,2.25.02.16.08.21.24.21,2.19,0,4.37,0,6.56,0,.04,0,.07,0,.11,0,.16-.02.2.05.2.21,0,2.61,0,5.22,0,7.83,0,.22,0,.43,0,.65,0,.16-.03.22-.21.22-3.44,0-6.88,0-10.33,0-5.35,0-10.7,0-16.06,0-.04,0-.08,0-.15,0Zm16.01-8.9c-.02-.14-.03-.26-.05-.39-.15-1.01-.72-1.7-1.66-2.04-.95-.35-1.85-.2-2.66.42-.62.48-.85,1.15-.94,1.89-.02.12.05.12.14.12,1.56,0,3.11,0,4.67,0,.16,0,.31,0,.5,0Z"/>
        <path class="cls-1" d="m20.82,52.28v-13.82c.06,0,.12,0,.17,0,4.4.02,8.79.04,13.19.06.42,0,.42,0,.42.43,0,4.33,0,8.65,0,12.98,0,.27,0,.27-.28.27-1.54.01-3.07.02-4.61.03-1.95.01-3.9.02-5.85.03-.93,0-1.86.02-2.79.03-.07,0-.14,0-.24,0Zm11.51-2.31v-9.19h-9.36c0,.05,0,.1,0,.14,0,2.97,0,5.94,0,8.91,0,.12.04.15.16.15,3.06,0,6.12,0,9.21,0Z"/>
        <path class="cls-1" d="m51.48,58.94c3.47,0,6.93,0,10.4,0,.24,0,.45.05.64.19.28.22.59.4.82.66.75.87.51,2.17-.5,2.77-.35.21-.72.32-1.13.32-2.56.04-5.13.1-7.69.11-3.58,0-7.16-.03-10.74-.05-.83,0-1.66-.04-2.48-.09-.84-.06-1.6-.79-1.76-1.64-.14-.79.3-1.62,1.09-1.98.27-.12.58-.22.88-.23,1.65-.05,3.3-.09,4.95-.11,1.84-.02,3.68,0,5.51,0,0,.01,0,.03,0,.04Z"/>
        <path class="cls-1" d="m51.36,31.83c-2.65,0-5.3,0-7.95,0-.82,0-1.65-.03-2.46-.11-.83-.09-1.47-.52-1.86-1.28-.12-.23-.16-.47-.12-.73.19-1.05.81-1.67,1.87-1.79.6-.07,1.2-.11,1.8-.11,5.68,0,11.35,0,17.03,0,.79,0,1.57.05,2.36.11.8.05,1.54.7,1.72,1.47.18.76-.17,1.54-.87,1.99-.4.26-.85.36-1.31.38-.73.03-1.45.07-2.18.07-2.67,0-5.35,0-8.02,0Z"/>
        <path class="cls-1" d="m51.64,47.36c-3.15-.02-6.29-.03-9.44-.06-.52,0-1.05-.03-1.56-.09-.74-.09-1.42-.75-1.58-1.48-.15-.72.15-1.42.81-1.88.36-.25.75-.36,1.18-.38,1.23-.04,2.46-.1,3.69-.11,4.39-.01,8.78-.01,13.17,0,1.18,0,2.35.05,3.53.11.42.02.83.12,1.24.21.15.04.31.14.42.25.41.41.7.88.7,1.49,0,.44-.19.81-.5,1.1-.3.28-.64.52-.97.76-.09.06-.23.07-.34.07-2.17,0-4.34,0-6.5,0-1.28,0-2.56,0-3.84,0,0,0,0,0,0,0Z"/>
        <path class="cls-1" d="m34.61,60.31c0,.35,0,.7,0,1.06.02,2.06.03,4.13.05,6.19,0,.16-.03.22-.21.22-1.43,0-2.86,0-4.29,0-3.05,0-6.1,0-9.15,0-.16,0-.2-.04-.2-.2,0-4.4,0-8.8,0-13.19,0-.04,0-.08,0-.13-.01-.11.03-.16.14-.15.13,0,.25,0,.38,0,4.31,0,8.62,0,12.94,0,.44,0,.36-.07.39.38.03.52-.26.86-.59,1.18-.51.49-1.03.97-1.55,1.45-.02.02-.04.02-.08.05-.03-.25-.07-.48-.08-.71,0-.17-.08-.2-.24-.2-1.68.02-3.36.04-5.04.05-1.32,0-2.63.01-3.95.02-.01,0-.02,0-.05.02v9.21c.22,0,.44,0,.66,0,2.53.02,5.06.04,7.59.06.29,0,.59,0,.88,0,.11,0,.15-.04.15-.15,0-1.02,0-2.04-.01-3.06,0-.18.05-.31.19-.43.58-.49,1.15-.99,1.72-1.48.09-.08.2-.15.3-.22l.06.02Z"/>
        <path class="cls-1" d="m34.62,29.14c0,.6,0,1.21,0,1.81,0,1.84.02,3.67.03,5.51,0,.14-.08.13-.17.13-1.07,0-2.14,0-3.21,0-3.25,0-6.5,0-9.75,0-.23,0-.46,0-.71,0,0-.13,0-.22,0-.32,0-4.39,0-8.78,0-13.18,0-.12.02-.18.17-.18,4.48,0,8.96,0,13.44,0,.24,0,.22,0,.24.25.04.52-.19.91-.55,1.26-.52.5-1.04,1-1.56,1.49-.03.02-.05.04-.12.09-.02-.2-.05-.37-.07-.55-.03-.38-.03-.4-.41-.4-1.21,0-2.41.02-3.62.03-1.69.02-3.38.04-5.06.05-.06,0-.13,0-.2,0-.02.52-.04,1.01-.05,1.51-.02,2.47-.04,4.93-.05,7.4,0,.37,0,.37.36.37,2.89,0,5.78,0,8.67,0,.35,0,.34,0,.34-.35,0-.99,0-1.98,0-2.97,0-.07.04-.17.09-.22.61-.54,1.22-1.08,1.84-1.61.08-.07.19-.12.28-.18.02,0,.04.02.07.03Z"/>
        <path class="cls-1" d="m24.07,60.14c.71-.59,1.42-1.17,2.19-1.81.04.07.06.14.11.19.69.76,1.38,1.52,2.08,2.27.27.29.2.27.48.02,1.92-1.7,3.83-3.4,5.75-5.1.49-.44.99-.87,1.48-1.31.08-.07.13-.06.19,0,.53.54,1.07,1.08,1.6,1.63.22.23.21.24-.02.45-.97.89-1.92,1.79-2.91,2.66-1.99,1.76-4,3.5-6.01,5.24-.14.12-.3.22-.44.34-.11.09-.19.09-.29,0-.39-.4-.79-.79-1.17-1.2-1.01-1.1-2-2.22-3.01-3.32-.01-.01-.02-.03-.04-.06Z"/>
        <path class="cls-1" d="m28.68,29.87c.42-.37.81-.72,1.2-1.07,1.31-1.16,2.62-2.32,3.93-3.49.79-.7,1.57-1.4,2.35-2.09.04-.03.15-.04.17-.01.56.57,1.11,1.14,1.67,1.71.14.14.11.24-.03.37-1.08.98-2.14,1.98-3.24,2.94-1.75,1.54-3.51,3.06-5.27,4.59-.29.26-.61.49-.91.73-.09.07-.16.09-.26,0-.63-.66-1.28-1.3-1.9-1.97-.75-.81-1.48-1.63-2.23-2.45-.1-.11-.08-.16.03-.25.64-.52,1.27-1.04,1.9-1.57.11-.09.16-.08.24.02.72.8,1.45,1.6,2.18,2.4.04.05.09.1.14.16Z"/>
      </g>
    </g>
  </g>
</svg>