<?xml version="1.0" encoding="UTF-8"?>
<svg id="Layer_2" data-name="Layer 2" xmlns="http://www.w3.org/2000/svg" viewBox="0 0 85 85">
  <defs>
    <style>
      .cls-1 {
        fill: #f39320;
      }

      .cls-2 {
        fill: #fff;
        fill-rule: evenodd;
      }
    </style>
  </defs>
  <g id="Layer_1-2" data-name="Layer 1">
    <g id="b5849b12-8714-4965-8097-157ad0180973">
      <g id="fb0d2b24-d5b7-401a-9423-b1fea05b71f0">
        <circle class="cls-1" cx="42.5" cy="42.5" r="42.5"/>
        <path class="cls-2" d="m14,42.5c0-15.74,12.76-28.5,28.5-28.5s28.5,12.76,28.5,28.5-12.76,28.5-28.5,28.5c-15.72.02-28.48-12.72-28.5-28.44,0-.02,0-.04,0-.06Zm51.08,0c0-12.47-10.11-22.58-22.58-22.58-12.47,0-22.58,10.11-22.58,22.58,0,12.47,10.11,22.58,22.58,22.58,12.46-.02,22.56-10.12,22.58-22.58Zm-37.73,0c-.02-.67.02-1.34.1-2h14.55v-13.15h.5c8.37,0,15.15,6.78,15.15,15.15s-6.78,15.15-15.15,15.15-15.15-6.78-15.15-15.15h0Z"/>
      </g>
    </g>
  </g>
</svg>