<?xml version="1.0" encoding="UTF-8"?>
<svg id="Layer_2" data-name="Layer 2" xmlns="http://www.w3.org/2000/svg" viewBox="0 0 85 85">
  <defs>
    <style>
      .cls-1 {
        fill: #fff;
      }

      .cls-2 {
        fill: #76927a;
      }
    </style>
  </defs>
  <g id="Layer_1-2" data-name="Layer 1">
    <g>
      <circle class="cls-2" cx="42.5" cy="42.5" r="42.5"/>
      <g>
        <path class="cls-1" d="m45.85,6.21c1.01.2,2.02.39,3.01.62,1.67.39,3.34.81,4.78,1.77.94.62,1.94,1.13,2.91,1.72.76.46.99,1.26.57,1.85-.36.51-1.5.62-2.16.21-1.91-1.2-3.83-2.38-6.1-2.91-.94-.22-1.88-.44-2.83-.58-1.06-.15-2.12-.26-3.19-.3-2.37-.09-4.59.62-6.81,1.27-2.08.61-3.85,1.8-5.45,3.08-1.58,1.27-2.94,2.8-4.08,4.51-1.29,1.94-2.06,4.02-2.44,6.2-.47,2.69-.25,5.37.54,8.03.8,2.67,2.34,4.9,4.19,7.01.7.8,1.24,1.75,1.76,2.67.84,1.47,1.65,2.96,2.42,4.47,1.35,2.67,2.11,5.51,2.62,8.46h.67c4.49,0,8.98-.01,13.46.01.66,0,.87-.15.97-.81.15-1.05.51-2.07.85-3.09.52-1.56.96-3.16,1.7-4.63,1-1.99,2.25-3.87,3.39-5.8,1.45-2.45,3.64-4.46,4.58-7.22.58-1.71,1.06-3.39,1.16-5.19.09-1.73.05-3.45-.46-5.08-.73-2.36-1.62-4.69-3.39-6.6-.54-.58-.41-1.6.11-1.93.73-.47,1.65-.22,2.24.52,1.55,1.93,2.53,4.09,3.33,6.39.67,1.92.92,3.87.95,5.83.02,1.48-.17,3.01-.55,4.44-.83,3.07-2.21,5.92-4.35,8.43-.63.74-1.19,1.53-1.81,2.34,1.08.55,2.14,1.1,3.21,1.64,1.58.8,3.12,1.69,4.77,2.36,1.33.55,1.74,1.69,2.43,2.66.57.8,1.08,1.65,1.59,2.48.93,1.5,1.88,2.98,2.77,4.5.87,1.48.55,2.59-.61,3.65-.52.48-1.3.7-1.96,1.04-.75.39-1.47.83-2.24,1.17-.46.2-.5.49-.49.88.01,2.34,0,4.68.01,7.01,0,.61-.21.97-.83,1.26-1.11.51-2.14,1.19-3.25,1.71-.47.22-1.06.34-1.57.29-.51-.05-.95-.44-1.01-.98-.07-.58.28-1.03.79-1.3.89-.48,1.82-.89,2.7-1.37.22-.12.46-.41.47-.63.04-1.69.02-3.38.02-5.27-.64.35-1.17.65-1.72.92-1.52.78-3.04,1.55-4.55,2.33-2.35,1.21-4.67,2.47-7.04,3.65-1.87.93-3.98.54-4.85-1.42-.59-1.32-1.58-2.48-2.5-3.85v14.61c2.54-1.27,5.02-2.51,7.5-3.76,1.48-.75,2.96-1.52,4.43-2.28.14-.07.25-.2.39-.23.48-.12,1.08-.41,1.44-.25.37.17.62.75.74,1.19.13.49-.18.86-.69,1.12-1.71.85-3.41,1.74-5.11,2.62-1.58.81-3.16,1.6-4.73,2.42-1.28.67-2.53,1.39-3.81,2.07-1.11.59-2.14.59-3.32-.07-2.45-1.36-5.01-2.55-7.53-3.82-1.1-.55-2.18-1.12-3.27-1.69-1.43-.74-2.87-1.48-4.3-2.22-1.89-.98-3.79-1.95-5.68-2.94-.59-.31-1.23-.57-1.71-.99-.34-.3-.62-.82-.63-1.26-.06-2.29-.04-4.58-.02-6.86,0-.42-.06-.69-.54-.92-1.33-.63-2.64-1.31-3.91-2.05-1.3-.76-1.83-2.6-.88-3.83.76-.98,1.29-2.11,1.96-3.16,1.22-1.91,2.46-3.81,3.7-5.7.12-.18.33-.32.53-.42,2.65-1.35,5.31-2.69,7.97-4.02.45-.22.53-.36.22-.82-1.37-2.02-3.08-3.82-4.18-6.03-.78-1.57-1.41-3.16-1.64-4.85-.24-1.73-.38-3.49-.32-5.24.1-3.2,1.08-6.18,2.82-8.97,1.02-1.63,2.29-3.06,3.67-4.4,1.31-1.26,2.86-2.24,4.49-3.14,2.45-1.36,5.08-2.11,7.89-2.4.06,0,.1-.09.15-.14,1.87,0,3.74,0,5.61,0Zm-4.02,58.33l-.19-.09c-.85,1.38-1.7,2.76-2.55,4.14-1.06,1.73-2.83,2.37-4.84,1.23-1.27-.72-2.61-1.34-3.92-1.99-.93-.46-1.87-.89-2.79-1.37-.64-.33-.69-.94-.56-1.5.07-.31.41-.77.66-.79.58-.05,1.24,0,1.75.25,2.09,1,4.16,2.04,6.17,3.16.64.36.87.16,1.14-.27.71-1.1,1.42-2.21,2.1-3.32.79-1.29,1.54-2.59,2.33-3.92-6.99-3.61-14.01-7.24-21.01-10.85-1.64,2.6-3.27,5.19-4.93,7.82,1.07.58,2.11,1.16,3.16,1.71,1.93,1.01,3.88,1.99,5.82,2.99.8.41,1.01,1.08.64,1.89-.25.55-.93.74-1.77.46-.29-.1-.55-.27-.81-.42-.38-.21-.76-.43-1.26-.72,0,1.88-.02,3.57.02,5.26,0,.24.24.56.47.68,1.2.68,2.43,1.31,3.65,1.95,1.5.78,3.02,1.55,4.53,2.32,1.58.81,3.15,1.63,4.73,2.44,2.06,1.06,4.13,2.11,6.2,3.16.38.19.78.33,1.25.54v-14.76Zm8.16,3.41c7.05-3.64,13.98-7.21,21.06-10.86-1.69-2.67-3.34-5.29-4.95-7.84-7.07,3.64-14.05,7.24-21.09,10.88,1.67,2.62,3.31,5.2,4.99,7.83Zm-17.66-15.35c.08-1.51-2.03-6.81-3.31-8.5-2.13,1.11-4.27,2.23-6.54,3.41,3.34,1.73,6.54,3.38,9.85,5.09Zm21.28-.1c.07.05.13.1.2.15,3.24-1.68,6.48-3.36,9.94-5.16-2.28-1.18-4.37-2.27-6.5-3.37-1.83,2.58-2.5,5.56-3.63,8.38Zm-8.03,4.31h-4.96c1.97,1.38,2.92,1.4,4.96,0Z"/>
        <path class="cls-1" d="m43.05,39.66c-1.03,1.17-3.76,1.03-4.99.06-.59-.47-1.02-1.1-1.6-1.58-.29-.24-.75-.36-1.15-.44-3.16-.64-6.01-3.12-5.74-6.34.11-1.33-.59-2.22-1.24-3.2-1.74-2.64-1.66-5.41-.32-8.09.74-1.49,1.91-2.84,3.67-3.57.3-.13.57-.49.69-.8.78-2.08,2.34-3.38,4.59-3.9,2.02-.47,3.97-.14,5.74.95.18.11.59.07.8-.04,2.73-1.43,5.44-1.58,8.1.11,1,.64,1.74,1.5,2.11,2.59.2.6.57.95,1.17,1.29,2.37,1.36,3.77,3.33,4.14,5.98.25,1.83-.1,3.51-.86,5.14-.3.64-.86,1.16-1.25,1.77-.15.24-.19.56-.21.85-.03.48.02.96-.02,1.44-.03.33-.15.66-.23.99-.46,2.12-1.86,3.51-3.94,4.34-.56.22-1.15.37-1.74.51-.53.12-.88.4-1.23.8-1.6,1.84-3.6,2.56-6,1.54-.18-.08-.32-.25-.48-.37Zm-1.18-19.73c-.97,0-1.68.26-2.23.91-.42.49-1.5.53-2,.11-.45-.38-.64-1.53-.18-1.84.85-.57,1.77-1.08,2.71-1.5.47-.21,1.07-.17,1.78-.27-.09-.65.03-1.44-.31-1.96-.58-.85-1.64-1.25-2.72-1.25-2.04,0-3.68.9-4.11,2.93-.16.75-.6,1.15-1.3,1.47-1.53.7-2.74,1.75-3.31,3.28-.69,1.84-.55,3.63.54,5.16,1.43-.85,2.8-1.67,4.15-2.48.19-.63.29-1.37.62-2.02.57-1.1,1.93-1.47,2.55-.53.25.37.21,1.05.03,1.5-.37.88-.67,1.76-.39,2.68.16.55.51,1.06.78,1.58.32.63.16,1.37-.33,1.64-.71.39-1.47.29-1.94-.31-.4-.51-.73-1.07-1.15-1.68-1.13.58-2.17,1.3-2.64,2.5-.86,2.16.74,4.83,3.18,5.33.56.12,1.23.16,1.76-.01.76-.25,1.45-.73,2.16-1.12.65-.37,1.55-.2,2.02.39.35.45.21,1.17-.36,1.6-.58.44-1.2.84-1.85,1.28.32.52.89.67,1.54.58.74-.1,1.04-.56,1.04-1.56,0-5.25,0-10.5,0-15.74,0-.19,0-.39,0-.67Zm2.9-.14c-.06.07-.13.15-.19.22v14.63c.72-1.03,1.74-1.14,2.7-.27.79.72,1.72,1.03,2.77.94,1.26-.11,2.23-.77,3.01-1.67.65-.76,1.2-1.63,1.12-2.58-.13-1.56-1.18-2.68-2.52-3.56-.35-.23-.69-.19-.86.27-.14.37-.31.73-.53,1.06-.4.6-1.4.89-2.07.6-.71-.31-.61-.94-.53-1.49.04-.3.25-.58.42-.86.62-1.03.72-2.07.19-3.15-.12-.24-.23-.49-.32-.75-.29-.82-.07-1.39.64-1.65.82-.31,1.51-.07,1.9.68.17.33.39.66.45,1.01.16.93.36,1.78,1.61,1.88.04,0,.08.07.12.09.93.61,1.87,1.21,2.87,1.86.33-1.31,1.2-2.42.82-3.97-.51-2.05-1.46-3.6-3.55-4.51-.44-.19-.84-.57-1.1-.95-.35-.53-.49-1.17-.8-1.72-1.05-1.86-4.1-2.36-5.83-1.01-.93.73-.36,1.64-.54,2.52,1.66-.04,2.89.67,4.01,1.57.51.42.47,1.49,0,1.94-.51.49-1.3.4-1.93-.07-.55-.42-1.22-.71-1.83-1.06Zm-.21,15.95c.16.67-.51,1.8.83,2.18.57.17,1.29-.04,1.58-.64-.83-.53-1.62-1.04-2.41-1.54Z"/>
        <path class="cls-1" d="m19.04,11.72c-.28-1.5.03-2.29.95-2.33.59-.03,1.28.07,1.46.73.13.49.08,1.03.11,1.55.76-.08,1.65-.28,2.12.44.23.36.19,1.04-.02,1.44-.44.82-1.34.54-2.06.5-.04.49-.02,1-.15,1.47-.16.59-.86.94-1.49.81-.64-.13-.95-.57-1.01-1.15-.04-.38,0-.77,0-1.16-.73.02-1.65.44-2.15-.41-.23-.39-.3-1.08-.08-1.44.5-.82,1.43-.62,2.33-.46Zm2.05.35c-.57.03-1.13.06-1.59.09-.06.53-.12,1.06-.17,1.51h1.76v-1.6Z"/>
        <path class="cls-1" d="m67.8,38.62c.55-.04,1.11-.19,1.64-.11.59.09.92.53.92,1.13,0,.56-.12,1.06-.81,1.17-.53.09-1.07.11-1.6.15,0,.26.01.65,0,1.03-.02.75-.4,1.14-1.3,1.17-.63.02-1.23-.23-1.32-.9-.06-.47.06-.97.1-1.45l.29-.27c.57-.07,1.15-.13,1.62-.19.05-.46.11-.97.17-1.49.1-.09.19-.18.29-.27Z"/>
        <path class="cls-1" d="m16.86,40.68c-.32,0-.64,0-.96-.01-1.13,0-1.45-.26-1.45-1.18,0-.9.46-1.32,1.48-1.31.33,0,.66.12.93.17,0-.37.03-.79,0-1.21-.07-.78.42-1.07,1.12-1.12.61-.05,1.25.07,1.39.74.11.5.03,1.04.03,1.56l-.28.27c-.63.04-1.26.09-1.8.13v1.54c-.15.14-.3.28-.45.42Z"/>
        <path class="cls-1" d="m69.92,33.37c-.35,0-.69-.01-1.04,0-.51,0-1.12.02-1.22-.55-.09-.49-.09-1.13.18-1.5.23-.3.91-.34,1.41-.42.23-.03.49.14.77.23-.04-.3-.08-.58-.1-.87-.04-.55-.07-1.24.56-1.4.51-.13,1.2.04,1.7.27.61.29.43.94.39,1.47-.01.14-.07.28-.11.42-.04.04-.08.08-.12.12-.68.11-1.36.23-1.96.33v1.49c-.15.14-.3.28-.45.42Z"/>
        <path class="cls-1" d="m16.86,40.68c.15-.14.3-.28.45-.42.58-.03,1.16-.06,1.62-.08.05-.47.11-1.03.18-1.59l.28-.27c.33-.05.67-.14,1-.14.94-.01,1.4.42,1.39,1.29,0,.92-.31,1.21-1.34,1.2-.36,0-.72-.05-1.05-.07,0,.47.07.98-.02,1.47-.12.71-.61.97-1.54.83-.64-.09-1.01-.45-.98-1.1.02-.37,0-.74,0-1.11Z"/>
        <path class="cls-1" d="m72.32,31.13s.08-.08.12-.12c.76-.22,1.55-.34,2.06.36.25.34.39.91.26,1.27-.12.32-.66.58-1.07.7-.4.12-.87.03-1.26.03,0,.44.12,1-.03,1.49-.2.64-.91.89-1.67.74-.68-.14-.79-.65-.82-1.18-.02-.35,0-.7,0-1.04.15-.14.3-.28.45-.42h1.56c.12-.57.26-1.19.4-1.82Z"/>
        <path class="cls-1" d="m16.76,23.74c.68.28,1.47.45,2.02.88.32.25.42.93.36,1.39-.07.51-.57.78-1.17.79-.95,0-1.75-.37-2.34-1-.25-.26-.42-.86-.27-1.1.26-.42.55-1.07,1.41-.95Z"/>
        <path class="cls-1" d="m68.22,19.92c-1.21,0-1.73-.33-1.83-.98-.11-.68.27-1.24,1.13-1.44.66-.16,1.36-.25,2.04-.21.64.03.77.56.8,1.09.02.53-.07,1.01-.69,1.19-.57.17-1.16.28-1.45.35Z"/>
        <path class="cls-1" d="m16.7,29.63c-.24,0-.51.07-.71-.01-.4-.15-1-.32-1.09-.61-.13-.4-.01-1,.25-1.35.45-.62,2.28-.68,3.01-.3.73.38.64.98.56,1.55-.09.6-.66.69-1.21.72-.27.01-.53,0-.8,0Z"/>
        <path class="cls-1" d="m18.28,30.11c.72-.12,1.05.34,1.19.93.12.52-.02.99-.6,1.29-.4.2-.76.48-1.16.7-.55.3-1.13.31-1.58-.15-.45-.45-.45-1.37-.05-1.82.44-.51,1.43-.94,2.2-.94Z"/>
        <path class="cls-1" d="m67.27,14.14c1.06,0,1.7.66,1.26,1.58-.31.65-1.04,1.2-1.72,1.61-.27.16-.97-.06-1.33-.3-.46-.3-.47-.81-.26-1.33.33-.8,1.28-1.56,2.05-1.56Z"/>
        <path class="cls-1" d="m68.98,23.21c-.4-.15-1.13-.3-1.72-.66-.57-.35-.55-1.01-.22-1.52.28-.43.66-.87,1.38-.5.3.16.71.14,1.07.19.89.13,1.26.58,1.18,1.43-.07.65-.61,1.07-1.69,1.07Z"/>
        <path class="cls-1" d="m67.8,38.62l-.29.27c-.6,0-1.21,0-1.81,0-.1-.09-.19-.18-.29-.27-.05-.36-.14-.72-.14-1.07-.01-.88.48-1.33,1.37-1.32.84.01,1.31.47,1.29,1.32,0,.36-.09.72-.14,1.07Z"/>
        <path class="cls-1" d="m65.42,38.62c.1.09.19.18.29.27,0,.56.01,1.11.02,1.67l-.29.27c-.44.05-.88.13-1.32.13-.73,0-1.22-.36-1.22-1.24,0-.89.49-1.25,1.21-1.24.44,0,.88.09,1.32.14Z"/>
      </g>
    </g>
  </g>
</svg>