<?xml version="1.0" encoding="UTF-8"?>
<svg id="Layer_2" data-name="Layer 2" xmlns="http://www.w3.org/2000/svg" xmlns:xlink="http://www.w3.org/1999/xlink" viewBox="0 0 84.54 84.54">
  <defs>
    <style>
      .cls-1 {
        letter-spacing: -.03em;
      }

      .cls-2 {
        fill: #fff;
      }

      .cls-3, .cls-4 {
        fill: #a45ea5;
      }

      .cls-4 {
        font-family: Tahoma, Tahoma;
        font-size: 8px;
      }

      .cls-5 {
        clip-path: url(#clippath);
      }

      .cls-6 {
        clip-rule: evenodd;
        fill: none;
      }

      .cls-7 {
        letter-spacing: 0em;
      }
    </style>
    <clipPath id="clippath">
      <polygon class="cls-6" points="11.02 7.15 79.62 7.15 79.62 71.49 11.02 71.49 11.02 7.15 11.02 7.15"/>
    </clipPath>
  </defs>
  <g id="Layer_1-2" data-name="Layer 1">
    <g>
      <circle class="cls-3" cx="42.27" cy="42.27" r="42.27"/>
      <g class="cls-5">
        <path class="cls-2" d="m20.03,71.49c-.65-.02-1.3-.05-1.95-.06-1.33-.03-2.65-.05-3.98-.08-.1,0-.21,0-.31-.03-1.11-.3-2.52-1.91-2.52-3.03,0-2.12-.11-4.24-.11-6.35,0-10.92.04-21.84.07-32.76,0-.3.18-.61.33-.89.43-.85,1.1-1.47,1.98-1.83.29-.12.63-.18.95-.19,1.3-.06,2.6-.1,3.92-.14v3.22c-.08,0-.17.02-.26.02-.5,0-1,.04-1.5,0-.91-.08-1.55.37-2.13.97-.05.05-.07.14-.09.21-.01.08,0,.16,0,.24,0,12.03,0,24.05,0,36.08,0,.28.1.45.29.65.57.61,1.26.83,2.08.77.49-.03.98-.02,1.47,0,.27.01.4-.07.53-.32,2.53-5.12,5.05-10.25,7.61-15.35,1.35-2.69,2.76-5.34,4.18-8,.26-.48.64-.92,1.03-1.31.19-.19.53-.3.81-.31,2.21-.07,4.42-.14,6.63-.16,6.91-.06,13.83-.1,20.74-.15.51,0,1.02,0,1.61,0v-9.2c.52-.02.92.1,1.29.31,1.27.72,1.91,1.79,1.91,3.28,0,1.77.07,3.54.11,5.31,0,.11.02.23.03.37.16,0,.3,0,.43,0,3.59,0,7.17,0,10.76.02.62,0,1.23.03,1.85.07.93.06,1.44.46,1.73,1.35.03.08.07.16.1.25v.77c-.08.16-.17.32-.25.48-3.96,7.57-7.92,15.14-11.86,22.72-.61,1.17-1.44,2.1-2.57,2.77-.21.12-.47.21-.7.22-7.34.02-14.69.03-22.03.05-.13,0-.25.03-.38.04h-21.8Z"/>
        <path class="cls-2" d="m58.96,40.59h-2.48c0-.15,0-.29,0-.44-.02-5.08-.04-10.15-.07-15.23-.01-1.7-.08-3.4-.12-5.1,0-.03,0-.07,0-.1-.04-.71-.06-.75-.76-.77-1.88-.06-3.77-.1-5.65-.13-.6-.01-1.17-.1-1.54-.63-.11-.16-.22-.36-.22-.54-.03-2.25-.04-4.49-.05-6.74,0-.12,0-.23-.02-.35-.08-.61-.15-.67-.77-.69-6.38-.22-12.76-.16-19.14-.08-1.29.02-2.58.06-3.88.09-.62.02-.65.04-.65.65-.05,7.15-.11,14.3-.14,21.44-.02,7.1,0,14.2-.01,21.31,0,.22-.05.46-.15.66-.59,1.16-1.19,2.31-1.8,3.47-.06.12-.15.22-.23.33-.04,0-.08,0-.12,0-.07-.24-.2-.49-.21-.73-.06-2.42-.13-4.84-.13-7.26,0-11.15,0-22.31.01-33.46,0-2.11.06-4.21.11-6.32.03-1.37,1.22-2.57,2.59-2.6,2.39-.06,4.77-.12,7.16-.12,6,0,11.99.03,17.99.06,1.26,0,1.28-.01,2.13.9,2.57,2.76,5.12,5.54,7.69,8.3.34.37.48.75.48,1.27-.02,7.44-.01,14.88-.01,22.32,0,.16,0,.32,0,.5Z"/>
        <path class="cls-2" d="m39.52,22.82c-3.94,0-7.89-.02-11.83.02-.6,0-.96-.24-1.27-.66-.35-.48-.42-1.03-.2-1.59.19-.49.58-.75,1.1-.76,1.28-.05,2.56-.11,3.84-.12,5.86-.01,11.73-.01,17.59,0,1.24,0,2.49.08,3.73.1.58,0,.93.29,1.15.79.23.53.18,1.04-.16,1.52-.44.62-1.11.68-1.78.7-1.36.04-2.72.07-4.08.07-2.7.01-5.4,0-8.1,0,0-.02,0-.04,0-.07Z"/>
        <path class="cls-2" d="m39.43,32.31c-3.94,0-7.89-.02-11.83.02-.6,0-.96-.24-1.27-.66-.35-.48-.42-1.03-.2-1.59.19-.49.58-.75,1.1-.76,1.28-.05,2.56-.11,3.84-.12,5.86-.01,11.73-.01,17.59,0,1.24,0,2.49.08,3.73.1.58,0,.93.29,1.15.79.23.53.18,1.04-.16,1.52-.44.62-1.11.68-1.78.7-1.36.04-2.72.07-4.08.07-2.7.01-5.4,0-8.1,0,0-.02,0-.04,0-.07Z"/>
      </g>
      <g>
        <rect class="cls-2" x="28.8" y="56.59" width="38.43" height="11.81"/>
        <g>
          <polygon class="cls-3" points="32.06 57.79 29.87 57.79 33.01 62.24 35.2 62.24 32.06 57.79"/>
          <polygon class="cls-3" points="38.34 57.79 36.15 57.79 39.29 62.24 41.48 62.24 38.34 57.79"/>
          <polygon class="cls-3" points="39.29 62.24 41.48 62.24 38.34 66.7 36.15 66.7 39.29 62.24"/>
          <polygon class="cls-3" points="36.02 62.24 38.21 62.24 35.07 66.7 32.88 66.7 36.02 62.24"/>
          <text class="cls-4" transform="translate(43.49 64.95)"><tspan class="cls-1" x="0" y="0">K</tspan><tspan x="4.48" y="0">est</tspan><tspan class="cls-7" x="14.94" y="0">r</tspan><tspan x="17.78" y="0">el</tspan></text>
        </g>
      </g>
    </g>
  </g>
</svg>